<?xml version="1.0" encoding="UTF-8"?>
<svg id="Layer_1" data-name="Layer 1" xmlns="http://www.w3.org/2000/svg" viewBox="0 0 652.54 106.17">
  <defs>
    <style>
      .cls-1 {
        fill: none;
        stroke: #000;
        stroke-miterlimit: 10;
        stroke-width: 4px;
      }
    </style>
  </defs>
  <polyline class="cls-1" points="55.9 47.4 33.94 59.66 55.9 71.92"/>
  <g>
    <path d="M297.24,74.47c-5.7-3.35-10.47-8.14-13.8-13.86l-.55-.95,.55-.95c3.33-5.72,8.1-10.51,13.8-13.86,5.88-3.45,12.6-5.28,19.45-5.28s13.58,1.83,19.45,5.28c5.7,3.35,10.47,8.14,13.8,13.86l.55,.95-.55,.95c-3.33,5.71-8.1,10.51-13.8,13.86-5.88,3.45-12.6,5.28-19.45,5.28s-13.58-1.83-19.45-5.28m37-26.36c-5.3-3.11-11.36-4.76-17.54-4.76s-12.24,1.65-17.54,4.76c-4.82,2.83-8.91,6.81-11.88,11.55,2.97,4.74,7.06,8.72,11.88,11.55,5.3,3.11,11.36,4.76,17.54,4.76s12.24-1.65,17.54-4.76c4.82-2.83,8.91-6.81,11.88-11.55-2.97-4.74-7.06-8.72-11.88-11.55"/>
    <path d="M331.69,52.27c0,8.28-6.71,14.99-14.99,14.99s-14.99-6.71-14.99-14.99,6.71-11.33,14.99-11.33,14.99,3.06,14.99,11.33"/>
  </g>
  <line class="cls-1" x1="285.67" y1="59.66" x2="36.39" y2="59.66"/>
  <line class="cls-1" x1="597.01" y1="59.66" x2="347.91" y2="59.66"/>
</svg>