<?xml version="1.0" encoding="UTF-8"?>
<svg id="Layer_1" data-name="Layer 1" xmlns="http://www.w3.org/2000/svg" viewBox="0 0 2880 1800">
  <defs>
    <style>
      .cls-1 {
        fill: #ff0;
      }
    </style>
  </defs>
  <rect class="cls-1" x="865.93" y="1405.19" width="40.66" height="148.07" transform="translate(-786.39 1059.94) rotate(-45)"/>
  <rect class="cls-1" x="812.23" y="1458.9" width="148.07" height="40.66" transform="translate(-786.39 1059.92) rotate(-45)"/>
  <g>
    <rect class="cls-1" x="2533.53" y="1551.69" width="40.66" height="148.07" transform="translate(-401.55 2282.01) rotate(-45)"/>
    <rect class="cls-1" x="2479.82" y="1605.39" width="148.07" height="40.66" transform="translate(-401.56 2281.96) rotate(-45)"/>
  </g>
  <rect class="cls-1" x="773.26" y="541.08" width="40.66" height="148.07" transform="translate(-202.51 741.32) rotate(-45)"/>
  <rect class="cls-1" x="719.55" y="594.78" width="148.07" height="40.66" transform="translate(-202.52 741.31) rotate(-45)"/>
  <rect class="cls-1" x="581.41" y="1011.15" width="40.66" height="148.07" transform="translate(-591.1 743.34) rotate(-45)"/>
  <rect class="cls-1" x="527.71" y="1064.86" width="148.07" height="40.66" transform="translate(-591.09 743.33) rotate(-45)"/>
  <g>
    <rect class="cls-1" x="2621.19" y="397.36" width="40.66" height="148.07" transform="translate(440.36 2005.91) rotate(-45)"/>
    <rect class="cls-1" x="2567.48" y="451.07" width="148.07" height="40.66" transform="translate(440.36 2005.91) rotate(-45)"/>
  </g>
  <g>
    <rect class="cls-1" x="260.24" y="1027.66" width="40.66" height="148.07" transform="translate(-696.84 521.07) rotate(-45)"/>
    <rect class="cls-1" x="206.54" y="1081.36" width="148.07" height="40.66" transform="translate(-696.83 521.06) rotate(-45)"/>
  </g>
  <g>
    <rect class="cls-1" x="202.81" y="1580.73" width="40.66" height="148.07" transform="translate(-1104.73 642.45) rotate(-45)"/>
    <rect class="cls-1" x="149.11" y="1634.43" width="148.07" height="40.66" transform="translate(-1104.73 642.44) rotate(-45)"/>
  </g>
  <g>
    <rect class="cls-1" x="298.33" y="856.15" width="40.66" height="148.07" transform="translate(-564.41 497.77) rotate(-45)"/>
    <rect class="cls-1" x="244.62" y="909.86" width="148.07" height="40.66" transform="translate(-564.4 497.76) rotate(-45)"/>
  </g>
  <rect class="cls-1" x="865.93" y="726.63" width="40.66" height="148.07" transform="translate(-306.58 861.19) rotate(-45)"/>
  <rect class="cls-1" x="812.23" y="780.34" width="148.07" height="40.66" transform="translate(-306.58 861.18) rotate(-45)"/>
  <path class="cls-1" d="M2261.1,1075.95h-268.96l263.91-45.67-6.93-40.06-304.1,52.63,292.28-99.09-13.05-38.51-292.28,99.09,273.41-143.16-18.86-36.02-273.41,143.16,247.94-183.77-24.21-32.66-247.94,183.77,216.49-219.96-28.98-28.52-216.49,219.96,179.82-250.83-33.04-23.69-179.81,250.83,138.8-275.65-36.31-18.29-138.8,275.65,94.44-293.82-38.71-12.44-94.44,293.82,47.8-304.9-40.17-6.3-47.79,304.9v-308.62h-40.66v308.62l-47.79-304.9-40.17,6.3,47.8,304.9-94.44-293.82-38.71,12.44,94.44,293.82-138.8-275.65-36.31,18.29,138.8,275.65-179.81-250.83-33.04,23.69,179.82,250.83-216.49-219.96-28.98,28.52,216.49,219.96-247.94-183.77-24.21,32.66,247.94,183.77-273.41-143.16-18.86,36.02,273.41,143.16-292.28-99.09-13.05,38.51,292.28,99.09-304.1-52.63-6.93,40.06,263.91,45.67h-268.96v40.66h268.96l-263.91,45.67,6.93,40.06,304.1-52.63-292.28,99.09,13.05,38.51,292.28-99.09-273.41,143.16,18.86,36.02,273.41-143.16-247.94,183.77,24.21,32.66,247.94-183.77-216.49,219.96,28.98,28.52,216.49-219.96-179.82,250.83,33.04,23.69,179.81-250.83-138.8,275.65,36.31,18.29,138.8-275.65-94.44,293.82,38.71,12.44,94.44-293.82-47.8,304.9,40.17,6.3,47.79-304.9v308.62h40.66v-308.62l47.79,304.9,40.17-6.3-47.8-304.9,94.44,293.82,38.71-12.44-94.44-293.82,138.8,275.65,36.31-18.29-138.8-275.65,179.81,250.83,33.04-23.69-179.82-250.83,216.49,219.96,28.98-28.52-216.49-219.96,247.94,183.77,24.21-32.66-247.94-183.77,273.41,143.16,18.86-36.02-273.41-143.16,292.28,99.09,13.05-38.51-292.28-99.09,304.1,52.63,6.93-40.06-263.91-45.67h268.96v-40.66Zm-793.5,20.33c0-126.36,102.44-228.79,228.79-228.79v134.32c-49,1.24-88.34,41.35-88.34,90.65s39.34,89.41,88.34,90.65v141.96c-126.36,0-228.79-102.43-228.79-228.79Z"/>
</svg>