<?xml version="1.0" encoding="UTF-8"?>
<svg id="Layer_1" data-name="Layer 1" xmlns="http://www.w3.org/2000/svg" viewBox="0 0 1147.3 1147.3">
  <defs>
    <style>
      .cls-1 {
        fill: #ff0;
      }
    </style>
  </defs>
  <path class="cls-1" d="M1142.44,565.31c-29.2-50.11-71.04-92.12-121.01-121.5-20.34-11.96-41.85-21.68-64.13-29.08,10.52-20.99,18.86-43.07,24.79-65.91,14.56-56.1,14.45-115.4-.34-171.48l-2.46-9.33-9.33-2.46c-56.08-14.79-115.38-14.91-171.48-.34-22.84,5.93-44.93,14.27-65.91,24.79-7.4-22.28-17.12-43.79-29.08-64.13-29.38-49.97-71.39-91.82-121.5-121.01l-8.33-4.86-8.33,4.86c-50.11,29.2-92.12,71.04-121.5,121.01-11.96,20.34-21.68,41.86-29.08,64.13-20.99-10.52-43.07-18.86-65.91-24.79-56.1-14.56-115.4-14.45-171.48,.34l-9.33,2.46-2.46,9.33c-14.79,56.08-14.91,115.38-.34,171.48,5.93,22.84,14.27,44.93,24.79,65.91-22.28,7.4-43.79,17.12-64.13,29.08-49.97,29.38-91.82,71.39-121.01,121.5l-4.86,8.33,4.86,8.33c29.2,50.11,71.04,92.12,121.01,121.5,20.34,11.96,41.85,21.68,64.13,29.08-10.52,20.99-18.86,43.07-24.79,65.91-14.56,56.1-14.45,115.4,.34,171.48l2.46,9.33,9.33,2.46c56.08,14.79,115.38,14.91,171.48,.34,22.84-5.93,44.93-14.26,65.91-24.79,7.4,22.28,17.12,43.79,29.08,64.13,29.37,49.97,71.39,91.82,121.5,121.01l8.33,4.86,8.33-4.86c50.11-29.2,92.12-71.04,121.5-121.01,11.96-20.34,21.68-41.85,29.08-64.13,20.99,10.52,43.07,18.86,65.91,24.79,56.1,14.56,115.4,14.45,171.48-.34l9.33-2.46,2.46-9.33c14.79-56.08,14.9-115.38,.34-171.48-5.93-22.84-14.27-44.93-24.79-65.91,22.28-7.4,43.79-17.12,64.13-29.08,49.97-29.37,91.82-71.39,121.01-121.5l4.86-8.33-4.86-8.33Zm-392.67-268.87c0-24.96-2.77-49.74-8.18-73.87,20.63-10.9,42.5-19.43,65.2-25.32,47.48-12.32,97.49-12.99,145.27-2.02,10.97,47.78,10.3,97.79-2.02,145.27-5.89,22.7-14.41,44.57-25.32,65.2-24.13-5.4-48.91-8.18-73.87-8.18-43.04,0-85.52,8.22-125.09,24.01,15.79-39.58,24.01-82.05,24.01-125.09Zm-46.88,253.24c-3.4-18.47-10.66-35.58-20.92-50.47,7.18-9.52,13.86-19.43,20.01-29.69,45.25-25.46,96.59-38.89,148.86-38.89,18.76,0,37.4,1.73,55.69,5.13-10.53,15.33-22.48,29.74-35.75,43-36.96,36.96-82.76,63.77-132.77,77.76-11.6-2.9-23.33-5.19-35.13-6.84Zm167.9,118.84c13.27,13.27,25.22,27.67,35.75,43-18.28,3.4-36.93,5.13-55.69,5.13-52.27,0-103.61-13.43-148.86-38.89-6.15-10.26-12.83-20.17-20.01-29.69,10.25-14.89,17.52-32.01,20.92-50.47,11.8-1.65,23.53-3.94,35.13-6.84,50,14,95.8,40.8,132.76,77.76Zm-159.25-427.77c3.4,18.28,5.13,36.93,5.13,55.69,0,52.27-13.43,103.61-38.89,148.86-10.26,6.15-20.17,12.83-29.69,20.01-14.89-10.25-32.01-17.52-50.47-20.92-1.65-11.8-3.94-23.53-6.84-35.13,14-50,40.8-95.8,77.76-132.77,13.27-13.27,27.67-25.22,43-35.75Zm-54.54,380.32l-35.91,35.91-47.44-47.44-47.44,47.44-35.91-35.91,47.44-47.44-47.44-47.44,35.91-35.91,47.44,47.44,47.44-47.44,35.91,35.91-47.44,47.44,47.44,47.44ZM472.36,142.65c24.86-42.29,59.75-78.12,101.29-104.15,41.54,26.02,76.43,61.86,101.29,104.15,11.88,20.21,21.32,41.71,28.2,64-20.88,13.24-40.36,28.8-58.02,46.45-30.43,30.43-54.66,66.28-71.47,105.43-16.81-39.15-41.04-75-71.47-105.43-17.65-17.65-37.13-33.21-58.02-46.45,6.88-22.3,16.32-43.79,28.2-64Zm-36.6,98.11c15.33,10.53,29.74,22.48,43,35.75,36.96,36.96,63.77,82.77,77.76,132.77-2.9,11.6-5.19,23.33-6.84,35.13-18.47,3.4-35.58,10.66-50.47,20.92-9.52-7.18-19.43-13.86-29.69-20.01-25.46-45.25-38.89-96.59-38.89-148.86,0-18.76,1.73-37.4,5.13-55.69Zm8.65,308.93c-11.81,1.65-23.53,3.94-35.13,6.84-50-14-95.8-40.8-132.76-77.76-13.27-13.27-25.22-27.67-35.75-43,18.28-3.4,36.93-5.13,55.69-5.13,52.27,0,103.61,13.43,148.87,38.89,6.15,10.26,12.83,20.17,20.01,29.69-10.25,14.89-17.52,32-20.92,50.47Zm20.92,98.39c-7.18,9.52-13.86,19.43-20.01,29.69-45.25,25.46-96.59,38.89-148.87,38.89-18.76,0-37.4-1.73-55.69-5.13,10.53-15.33,22.48-29.74,35.75-43,36.96-36.96,82.76-63.77,132.76-77.76,11.6,2.9,23.33,5.19,35.13,6.84,3.4,18.47,10.66,35.58,20.92,50.47ZM195.24,195.24c47.78-10.97,97.79-10.3,145.27,2.02,22.7,5.89,44.57,14.41,65.2,25.32-5.4,24.13-8.18,48.91-8.18,73.87,0,43.04,8.22,85.52,24.01,125.09-39.58-15.8-82.05-24.01-125.09-24.01-24.96,0-49.74,2.77-73.87,8.18-10.9-20.63-19.43-42.5-25.32-65.2-12.32-47.48-13-97.49-2.02-145.27Zm-52.59,479.7c-42.29-24.86-78.12-59.75-104.15-101.29,26.02-41.54,61.86-76.43,104.15-101.29,20.21-11.88,41.71-21.32,64-28.2,13.24,20.88,28.8,40.36,46.45,58.02,30.43,30.43,66.28,54.66,105.44,71.47-39.15,16.82-75,41.04-105.43,71.47-17.65,17.65-33.21,37.13-46.45,58.02-22.3-6.88-43.79-16.32-64-28.2Zm254.88,175.91c0,24.96,2.77,49.74,8.18,73.87-20.63,10.9-42.5,19.42-65.2,25.32-47.48,12.32-97.49,13-145.27,2.02-10.97-47.78-10.3-97.79,2.02-145.27,5.89-22.7,14.41-44.57,25.32-65.2,24.13,5.4,48.91,8.18,73.87,8.18,43.04,0,85.52-8.22,125.09-24.01-15.8,39.58-24.01,82.05-24.01,125.09Zm38.23,55.69c-3.4-18.28-5.13-36.93-5.13-55.69,0-52.27,13.44-103.61,38.89-148.86,10.26-6.15,20.17-12.83,29.69-20.01,14.89,10.25,32,17.52,50.47,20.92,1.65,11.8,3.94,23.53,6.84,35.13-14,50-40.8,95.8-77.76,132.76-13.27,13.27-27.67,25.22-43,35.75Zm239.18,98.11c-24.86,42.29-59.75,78.13-101.29,104.15-41.54-26.02-76.43-61.86-101.29-104.15-11.88-20.21-21.32-41.71-28.2-64,20.88-13.24,40.36-28.8,58.02-46.45,30.43-30.43,54.66-66.28,71.47-105.43,16.82,39.15,41.04,75,71.47,105.43,17.65,17.65,37.13,33.21,58.02,46.45-6.88,22.3-16.32,43.79-28.2,64Zm36.6-98.11c-15.33-10.53-29.74-22.48-43-35.75-36.96-36.96-63.77-82.76-77.76-132.76,2.9-11.6,5.19-23.33,6.84-35.13,18.47-3.4,35.58-10.67,50.47-20.92,9.52,7.18,19.43,13.86,29.69,20.01,25.46,45.25,38.89,96.59,38.89,148.86,0,18.76-1.73,37.4-5.13,55.69Zm240.52,45.52c-47.78,10.97-97.79,10.3-145.27-2.02-22.7-5.89-44.57-14.41-65.2-25.32,5.4-24.13,8.18-48.91,8.18-73.87,0-43.04-8.22-85.52-24.01-125.09,39.58,15.8,82.05,24.01,125.09,24.01,24.96,0,49.74-2.77,73.87-8.18,10.9,20.63,19.43,42.5,25.32,65.2,12.32,47.48,13,97.49,2.02,145.27Zm52.59-277.12c-20.21,11.88-41.71,21.32-64,28.2-13.24-20.88-28.8-40.36-46.45-58.02-30.43-30.43-66.28-54.66-105.44-71.47,39.15-16.82,75-41.04,105.43-71.47,17.65-17.65,33.21-37.13,46.45-58.02,22.3,6.88,43.79,16.32,64,28.2,42.29,24.86,78.13,59.75,104.15,101.29-26.02,41.54-61.86,76.43-104.15,101.29Z"/>
</svg>