<?xml version="1.0" encoding="UTF-8"?>
<svg id="Layer_1" data-name="Layer 1" xmlns="http://www.w3.org/2000/svg" viewBox="0 0 284.66 362.72">
  <defs>
    <style>
      .cls-1 {
        fill: #fff;
      }

      .cls-2 {
        fill: none;
        stroke: #000;
        stroke-miterlimit: 10;
        stroke-width: 4px;
      }
    </style>
  </defs>
  <polygon points="178.5 111.37 251.42 111.37 178.5 38.45 178.5 111.37"/>
  <polygon class="cls-2" points="49.99 38.45 178.5 38.45 251.42 111.37 251.42 305.89 49.99 305.89 49.99 38.45"/>
  <rect x="16.87" y="164.33" width="178.22" height="104.27"/>
  <g>
    <path class="cls-1" d="M69.87,243.95c-10.58-6.22-19.44-15.11-25.62-25.72l-1.03-1.76,1.03-1.76c6.18-10.61,15.04-19.5,25.62-25.72,10.91-6.41,23.39-9.8,36.11-9.8s25.2,3.39,36.11,9.8c10.58,6.22,19.44,15.11,25.62,25.72l1.03,1.76-1.03,1.76c-6.18,10.61-15.04,19.5-25.62,25.72-10.91,6.41-23.39,9.8-36.11,9.8s-25.2-3.39-36.11-9.8m68.67-48.93c-9.83-5.78-21.09-8.83-32.56-8.83s-22.73,3.05-32.56,8.83c-8.95,5.26-16.54,12.65-22.05,21.44,5.51,8.79,13.1,16.18,22.05,21.44,9.83,5.78,21.09,8.83,32.56,8.83s22.73-3.05,32.56-8.83c8.95-5.26,16.54-12.65,22.05-21.44-5.51-8.79-13.1-16.18-22.05-21.44"/>
    <path class="cls-1" d="M133.81,202.75c0,15.37-12.46,27.82-27.82,27.82s-27.82-12.46-27.82-27.82,12.46-21.04,27.82-21.04,27.82,5.67,27.82,21.04"/>
  </g>
</svg>