<?xml version="1.0" encoding="UTF-8"?>
<svg id="Layer_1" data-name="Layer 1" xmlns="http://www.w3.org/2000/svg" viewBox="0 0 1470.43 1176.84">
  <defs>
    <style>
      .cls-1 {
        fill: #e6e8e6;
      }

      .cls-2 {
        fill: none;
        stroke: #e6e8e6;
        stroke-miterlimit: 10;
        stroke-width: 49.21px;
      }
    </style>
  </defs>
  <rect class="cls-1" x="1421.09" y="225.73" width="49.34" height="725.39"/>
  <path class="cls-1" d="M871.87,1117.51c-64.04-37.64-117.68-91.49-155.1-155.71l-6.22-10.68,6.22-10.68c37.42-64.23,91.05-118.07,155.1-155.72,66.03-38.81,141.63-59.33,218.62-59.33s152.59,20.52,218.62,59.33c64.05,37.65,117.68,91.49,155.1,155.72l6.22,10.68-6.22,10.68c-37.42,64.22-91.05,118.07-155.1,155.71-66.03,38.81-141.63,59.33-218.62,59.33s-152.59-20.51-218.62-59.33m415.74-296.21c-59.52-34.98-127.68-53.48-197.12-53.48s-137.6,18.49-197.12,53.48c-54.2,31.86-100.13,76.58-133.48,129.82,33.35,53.24,79.29,97.96,133.48,129.82,59.52,34.98,127.68,53.48,197.12,53.48s137.6-18.49,197.12-53.48c54.2-31.86,100.13-76.58,133.48-129.82-33.35-53.24-79.29-97.96-133.48-129.82"/>
  <path class="cls-1" d="M1258.93,951.12c0,93.03-75.42,168.44-168.44,168.44s-168.44-75.41-168.44-168.44,75.41-168.44,168.44-168.44,168.44,75.41,168.44,168.44"/>
  <path class="cls-1" d="M161.32,1117.51c-64.04-37.64-117.68-91.49-155.1-155.71L0,951.12l6.22-10.68c37.42-64.23,91.05-118.07,155.1-155.72,66.03-38.81,141.63-59.33,218.62-59.33s152.59,20.52,218.62,59.33c64.05,37.65,117.68,91.49,155.1,155.72l6.22,10.68-6.22,10.68c-37.42,64.22-91.05,118.07-155.1,155.71-66.03,38.81-141.63,59.33-218.62,59.33s-152.59-20.51-218.62-59.33m415.74-296.21c-59.52-34.98-127.68-53.48-197.12-53.48s-137.6,18.49-197.12,53.48c-54.2,31.86-100.13,76.58-133.48,129.82,33.35,53.24,79.29,97.96,133.48,129.82,59.52,34.98,127.68,53.48,197.12,53.48s137.6-18.49,197.12-53.48c54.2-31.86,100.13-76.58,133.48-129.82-33.35-53.24-79.29-97.96-133.48-129.82"/>
  <path class="cls-1" d="M548.39,951.12c0,93.03-75.41,168.44-168.44,168.44s-168.44-75.41-168.44-168.44,75.41-168.44,168.44-168.44,168.44,75.41,168.44,168.44"/>
  <path class="cls-1" d="M548.39,951.12c0,93.03-75.41,168.44-168.44,168.44s-168.44-75.41-168.44-168.44,75.41-168.44,168.44-168.44,168.44,75.41,168.44,168.44"/>
  <path class="cls-1" d="M759.88,225.73c33.35-53.24,79.29-97.96,133.48-129.82,59.52-34.98,127.68-53.48,197.12-53.48s137.6,18.49,197.12,53.48c54.19,31.86,100.13,76.58,133.48,129.82h49.34l-6.22-10.68c-37.42-64.22-91.05-118.07-155.1-155.72C1243.08,20.51,1167.48,0,1090.49,0s-152.59,20.51-218.62,59.33c-64.04,37.65-117.68,91.49-155.1,155.72l-6.22,10.68h49.34Z"/>
  <path class="cls-2" d="M626.01,337.65c-24.63-33.45-56.02-61.83-91.79-82.86-46.54-27.36-99.89-41.82-154.28-41.82s-107.74,14.46-154.28,41.82c-35.77,21.03-67.15,49.41-91.78,82.86"/>
  <path class="cls-2" d="M626.01,493.37c-24.63-33.45-56.02-61.83-91.79-82.86-46.54-27.36-99.89-41.82-154.28-41.82s-107.74,14.46-154.28,41.82c-35.77,21.03-67.15,49.41-91.78,82.86"/>
  <path class="cls-2" d="M626.01,649.1c-24.63-33.45-56.02-61.83-91.79-82.86-46.54-27.36-99.89-41.82-154.28-41.82s-107.74,14.46-154.28,41.82c-35.77,21.03-67.15,49.41-91.78,82.86"/>
  <path class="cls-2" d="M1336.56,337.65c-24.63-33.45-56.01-61.83-91.78-82.86-46.55-27.36-99.9-41.82-154.29-41.82s-107.74,14.46-154.28,41.82c-35.77,21.03-67.15,49.41-91.79,82.86"/>
  <path class="cls-2" d="M1336.56,493.37c-24.63-33.45-56.01-61.83-91.78-82.86-46.55-27.36-99.9-41.82-154.29-41.82s-107.74,14.46-154.28,41.82c-35.77,21.03-67.15,49.41-91.79,82.86"/>
  <path class="cls-2" d="M1336.56,649.1c-24.63-33.45-56.01-61.83-91.78-82.86-46.55-27.36-99.9-41.82-154.29-41.82s-107.74,14.46-154.28,41.82c-35.77,21.03-67.15,49.41-91.79,82.86"/>
  <path class="cls-1" d="M759.88,225.73l-6.22-10.68c-37.42-64.22-91.05-118.07-155.1-155.72C532.53,20.52,456.94,0,379.94,0S227.35,20.52,161.32,59.33C97.28,96.98,43.64,150.82,6.22,215.05l-6.22,10.68V951.12H0s49.34,0,49.34,0h0c33.35-53.24,79.29-97.96,133.48-129.82,59.52-34.98,127.68-53.48,197.12-53.48s137.6,18.49,197.12,53.48c54.2,31.86,100.13,76.58,133.48,129.82h49.34V225.73h0Zm-161.32,558.99c-66.03-38.81-141.63-59.33-218.62-59.33s-152.59,20.51-218.62,59.33c-42.47,24.97-80.36,57.06-111.98,94.58V225.73h0c33.35-53.24,79.29-97.96,133.48-129.82,59.52-34.98,127.68-53.48,197.12-53.48s137.6,18.49,197.12,53.48c54.2,31.86,100.13,76.58,133.48,129.82V879.3c-31.62-37.52-69.51-69.61-111.98-94.58"/>
</svg>