<?xml version="1.0" encoding="UTF-8"?>
<svg id="Layer_1" data-name="Layer 1" xmlns="http://www.w3.org/2000/svg" viewBox="0 0 2880 1800">
  <defs>
    <style>
      .cls-9 {
        fill: #ff0;
      }
    </style>
  </defs>
  <g>
    <path class="cls-9" d="M507.3,134.13c-1.83,15.36-7.62,30.09-16.74,42.59l-1.52,2.08-2.56-.29c-15.38-1.77-30.12-7.5-42.65-16.57-12.92-9.35-23.15-22.05-29.58-36.74-6.43-14.68-8.84-30.81-6.95-46.65,1.83-15.36,7.62-30.08,16.74-42.59l1.52-2.08,2.56,.3c15.37,1.77,30.12,7.5,42.65,16.57,12.92,9.35,23.15,22.05,29.58,36.73,6.43,14.68,8.84,30.82,6.95,46.65m-91.22-54.54c-1.7,14.27,.47,28.82,6.27,42.06,5.8,13.24,15.02,24.7,26.67,33.12,10.6,7.67,22.97,12.7,35.91,14.61,7.37-10.81,12.06-23.3,13.61-36.3,1.7-14.27-.47-28.82-6.27-42.06-5.8-13.24-15.02-24.7-26.67-33.12-10.6-7.67-22.97-12.7-35.91-14.61-7.37,10.81-12.06,23.31-13.61,36.3"/>
    <path class="cls-9" d="M443.23,74.21c17.74-7.77,38.42,.31,46.2,18.05,7.77,17.74-.31,38.42-18.05,46.19-17.74,7.77-38.42-.31-46.2-18.05-7.77-17.74,.31-38.42,18.05-46.19"/>
    <path class="cls-9" d="M443.23,74.21c17.74-7.77,38.42,.31,46.2,18.05,7.77,17.74-.31,38.42-18.05,46.19-17.74,7.77-38.42-.31-46.2-18.05-7.77-17.74,.31-38.42,18.05-46.19"/>
    <path class="cls-9" d="M426.1,169.7c-1.83,15.36-7.62,30.09-16.74,42.59l-1.52,2.08-2.56-.3c-15.38-1.77-30.12-7.5-42.65-16.57-12.92-9.35-23.15-22.05-29.58-36.74-6.43-14.68-8.84-30.81-6.95-46.65,1.83-15.36,7.62-30.08,16.74-42.59l1.52-2.08,2.56,.29c15.37,1.77,30.12,7.5,42.65,16.57,12.92,9.35,23.15,22.05,29.58,36.73,6.43,14.68,8.84,30.82,6.95,46.65m-91.22-54.54c-1.7,14.27,.47,28.82,6.27,42.06,5.8,13.24,15.02,24.7,26.67,33.12,10.6,7.67,22.97,12.7,35.91,14.61,7.37-10.81,12.06-23.3,13.61-36.3,1.7-14.27-.47-28.82-6.27-42.06-5.8-13.24-15.02-24.7-26.67-33.12-10.6-7.67-22.97-12.7-35.91-14.61-7.37,10.81-12.06,23.31-13.61,36.3"/>
    <path class="cls-9" d="M362.03,109.79c17.74-7.77,38.42,.31,46.2,18.05,7.77,17.74-.31,38.42-18.05,46.19-17.74,7.77-38.42-.31-46.2-18.05-7.77-17.74,.31-38.42,18.05-46.19"/>
    <path class="cls-9" d="M362.03,109.79c17.74-7.77,38.42,.31,46.2,18.05,7.77,17.74-.31,38.42-18.05,46.19-17.74,7.77-38.42-.31-46.2-18.05-7.77-17.74,.31-38.42,18.05-46.19"/>
    <rect class="cls-9" x="412.18" y="41.61" width="8.83" height="162.46" transform="translate(-14.28 177.49) rotate(-23.66)"/>
    <path class="cls-9" d="M465.22,190.22c-3.88-8.85-14.2-12.89-23.05-9.01-8.85,3.88-12.89,14.2-9.01,23.05,3.88,8.85,14.2,12.89,23.05,9.01,8.85-3.88,12.88-14.2,9.01-23.05"/>
  </g>
  <g>
    <path class="cls-9" d="M1220.81,827.69c14.9,4.14,28.58,12.09,39.56,23l1.83,1.82-.68,2.48c-4.08,14.93-11.98,28.64-22.84,39.65-11.2,11.35-25.31,19.54-40.8,23.67-15.49,4.13-31.8,4.06-47.16-.2-14.9-4.14-28.58-12.09-39.56-23l-1.83-1.82,.68-2.48c4.08-14.93,11.98-28.64,22.84-39.65,11.2-11.35,25.31-19.54,40.8-23.67,15.49-4.13,31.8-4.06,47.16,.2m-67.74,81.9c13.85,3.84,28.56,3.91,42.52,.18,13.97-3.73,26.69-11.1,36.78-21.34,9.19-9.32,16.03-20.78,19.89-33.28-9.57-8.92-21.21-15.45-33.82-18.95-13.85-3.84-28.56-3.91-42.52-.18-13.97,3.73-26.69,11.11-36.78,21.34-9.19,9.32-16.03,20.78-19.89,33.28,9.57,8.92,21.21,15.45,33.82,18.95"/>
    <path class="cls-9" d="M1151.87,881.93c-4.99-18.71,6.13-37.93,24.85-42.92,18.71-4.99,37.93,6.13,42.93,24.85,4.99,18.71-6.13,37.93-24.85,42.92-18.72,4.99-37.93-6.13-42.93-24.85"/>
    <path class="cls-9" d="M1151.87,881.93c-4.99-18.71,6.13-37.93,24.85-42.92,18.71-4.99,37.93,6.13,42.93,24.85,4.99,18.71-6.13,37.93-24.85,42.92-18.72,4.99-37.93-6.13-42.93-24.85"/>
    <path class="cls-9" d="M1243.66,913.35c14.9,4.14,28.58,12.09,39.56,23l1.83,1.82-.68,2.48c-4.08,14.93-11.98,28.64-22.84,39.65-11.2,11.35-25.31,19.54-40.8,23.67-15.49,4.13-31.8,4.06-47.16-.2-14.9-4.14-28.58-12.09-39.56-23l-1.82-1.82,.68-2.48c4.08-14.93,11.98-28.64,22.84-39.65,11.2-11.35,25.31-19.53,40.8-23.67,15.49-4.13,31.8-4.06,47.16,.2m-67.74,81.9c13.85,3.84,28.56,3.91,42.52,.18,13.97-3.73,26.69-11.1,36.78-21.34,9.19-9.32,16.03-20.78,19.89-33.28-9.57-8.92-21.21-15.45-33.82-18.95-13.85-3.84-28.56-3.91-42.52-.18-13.97,3.73-26.69,11.11-36.78,21.34-9.19,9.32-16.03,20.78-19.89,33.28,9.57,8.92,21.21,15.45,33.82,18.95"/>
    <path class="cls-9" d="M1174.72,967.59c-4.99-18.71,6.13-37.93,24.85-42.92,18.71-4.99,37.93,6.13,42.93,24.85,4.99,18.71-6.13,37.93-24.85,42.92-18.72,4.99-37.93-6.13-42.93-24.85"/>
    <path class="cls-9" d="M1174.72,967.59c-4.99-18.71,6.13-37.93,24.85-42.92,18.71-4.99,37.93,6.13,42.93,24.85,4.99,18.71-6.13,37.93-24.85,42.92-18.72,4.99-37.93-6.13-42.93-24.85"/>
    <rect class="cls-9" x="1114.67" y="911.22" width="162.46" height="8.83" transform="translate(-195.59 339.16) rotate(-14.94)"/>
    <path class="cls-9" d="M1269.88,877.79c-9.34,2.49-14.89,12.08-12.4,21.42,2.49,9.34,12.08,14.89,21.42,12.4,9.34-2.49,14.89-12.08,12.4-21.42-2.49-9.34-12.08-14.89-21.42-12.4"/>
    <path class="cls-9" d="M253.27,1486.53c6.91-13.84,17.33-25.75,30.14-34.43l2.13-1.45,2.31,1.14c13.87,6.86,25.82,17.23,34.55,30,9,13.16,14.34,28.58,15.43,44.57,1.1,15.99-2.09,31.99-9.21,46.26-6.91,13.84-17.33,25.74-30.14,34.43l-2.13,1.45-2.31-1.14c-13.87-6.86-25.82-17.23-34.55-30-9-13.16-14.34-28.58-15.43-44.57-1.1-15.99,2.09-31.99,9.21-46.25m67.44,82.14c6.42-12.86,9.29-27.28,8.3-41.71-.99-14.42-5.8-28.32-13.91-40.18-7.39-10.8-17.33-19.71-28.86-25.88-10.58,7.68-19.22,17.86-25.07,29.57-6.42,12.86-9.29,27.28-8.31,41.71,.99,14.42,5.8,28.32,13.91,40.18,7.39,10.8,17.33,19.71,28.86,25.88,10.58-7.68,19.22-17.86,25.07-29.57"/>
    <path class="cls-9" d="M293.34,1564.56c-19.32,1.32-36.06-13.27-37.38-32.59-1.32-19.32,13.27-36.06,32.59-37.39,19.32-1.32,36.06,13.27,37.38,32.59,1.32,19.32-13.27,36.06-32.59,37.38"/>
    <path class="cls-9" d="M293.34,1564.56c-19.32,1.32-36.06-13.27-37.38-32.59-1.32-19.32,13.27-36.06,32.59-37.39,19.32-1.32,36.06,13.27,37.38,32.59,1.32,19.32-13.27,36.06-32.59,37.38"/>
    <path class="cls-9" d="M341.72,1480.47c6.91-13.84,17.33-25.74,30.14-34.43l2.13-1.44,2.31,1.14c13.87,6.86,25.82,17.23,34.55,30,9,13.16,14.34,28.58,15.43,44.57,1.1,15.99-2.09,31.99-9.21,46.25-6.91,13.84-17.33,25.74-30.14,34.43l-2.13,1.44-2.31-1.14c-13.87-6.86-25.82-17.23-34.55-30-9-13.16-14.34-28.57-15.43-44.57-1.1-15.99,2.09-31.99,9.21-46.26m67.44,82.14c6.42-12.86,9.29-27.28,8.3-41.71-.99-14.42-5.8-28.32-13.91-40.18-7.39-10.8-17.33-19.71-28.86-25.88-10.59,7.68-19.22,17.86-25.07,29.57-6.42,12.86-9.29,27.28-8.31,41.71,.99,14.42,5.8,28.32,13.91,40.18,7.39,10.8,17.33,19.71,28.86,25.88,10.58-7.68,19.22-17.86,25.07-29.57"/>
    <path class="cls-9" d="M381.79,1558.51c-19.32,1.32-36.06-13.27-37.38-32.59-1.32-19.32,13.27-36.06,32.59-37.39,19.32-1.32,36.06,13.27,37.38,32.59,1.32,19.32-13.27,36.06-32.59,37.38"/>
    <path class="cls-9" d="M381.79,1558.51c-19.32,1.32-36.06-13.27-37.38-32.59-1.32-19.32,13.27-36.06,32.59-37.39,19.32-1.32,36.06,13.27,37.38,32.59,1.32,19.32-13.27,36.06-32.59,37.38"/>
    <rect class="cls-9" x="330.42" y="1446.56" width="8.83" height="162.46" transform="translate(-103.68 26.47) rotate(-3.92)"/>
    <path class="cls-9" d="M311.82,1447.94c.66,9.64,9.01,16.92,18.65,16.26,9.64-.66,16.92-9.01,16.26-18.65-.66-9.64-9.01-16.92-18.65-16.26-9.64,.66-16.92,9.01-16.26,18.65"/>
    <path class="cls-9" d="M2718.82,1089.64c15.45,.83,30.52,5.66,43.58,13.95l2.17,1.38-.13,2.57c-.77,15.46-5.54,30.54-13.78,43.63-8.5,13.49-20.51,24.52-34.75,31.89-14.24,7.37-30.18,10.81-46.1,9.95-15.44-.83-30.51-5.66-43.58-13.95l-2.17-1.38,.13-2.57c.77-15.46,5.54-30.54,13.78-43.63,8.5-13.49,20.51-24.52,34.75-31.89,14.24-7.37,30.18-10.81,46.1-9.95m-48.53,94.55c14.35,.77,28.73-2.33,41.57-8.97,12.84-6.64,23.68-16.59,31.33-28.75,6.97-11.08,11.19-23.74,12.26-36.78-11.26-6.65-24.03-10.53-37.1-11.23-14.35-.77-28.73,2.33-41.57,8.97-12.84,6.64-23.68,16.59-31.33,28.75-6.97,11.08-11.19,23.74-12.26,36.78,11.26,6.65,24.03,10.53,37.1,11.23"/>
    <path class="cls-9" d="M2663.17,1157.44c-8.9-17.2-2.17-38.36,15.03-47.27,17.2-8.9,38.36-2.17,47.26,15.03,8.9,17.2,2.17,38.36-15.03,47.27-17.2,8.9-38.36,2.17-47.26-15.03"/>
    <path class="cls-9" d="M2663.17,1157.44c-8.9-17.2-2.17-38.36,15.03-47.27,17.2-8.9,38.36-2.17,47.26,15.03,8.9,17.2,2.17,38.36-15.03,47.27-17.2,8.9-38.36,2.17-47.26-15.03"/>
    <path class="cls-9" d="M2759.56,1168.38c15.44,.83,30.51,5.66,43.58,13.95l2.17,1.38-.13,2.57c-.77,15.46-5.54,30.54-13.78,43.63-8.5,13.49-20.51,24.52-34.75,31.89-14.24,7.37-30.18,10.81-46.1,9.95-15.44-.83-30.51-5.66-43.58-13.95l-2.17-1.38,.13-2.57c.77-15.46,5.54-30.54,13.78-43.63,8.5-13.49,20.51-24.52,34.75-31.89,14.24-7.37,30.18-10.81,46.1-9.95m-48.53,94.55c14.35,.77,28.73-2.33,41.57-8.97,12.84-6.64,23.68-16.59,31.33-28.75,6.97-11.08,11.19-23.74,12.26-36.78-11.26-6.65-24.03-10.53-37.1-11.23-14.35-.77-28.73,2.33-41.57,8.97-12.84,6.64-23.68,16.59-31.33,28.75-6.97,11.08-11.19,23.74-12.26,36.78,11.26,6.65,24.03,10.53,37.1,11.23"/>
    <path class="cls-9" d="M2703.91,1236.18c-8.9-17.2-2.17-38.36,15.03-47.27,17.2-8.9,38.36-2.17,47.26,15.03,8.9,17.2,2.17,38.36-15.03,47.27-17.2,8.9-38.36,2.17-47.26-15.03"/>
    <path class="cls-9" d="M2703.91,1236.18c-8.9-17.2-2.17-38.36,15.03-47.27,17.2-8.9,38.36-2.17,47.26,15.03,8.9,17.2,2.17,38.36-15.03,47.27-17.2,8.9-38.36,2.17-47.26-15.03"/>
    <rect class="cls-9" x="2632.19" y="1176.46" width="162.46" height="8.83" transform="translate(-239.18 1379.14) rotate(-27.36)"/>
    <path class="cls-9" d="M2777.52,1128.01c-8.58,4.44-11.94,15-7.5,23.58,4.44,8.58,15,11.94,23.58,7.5,8.58-4.44,11.94-15,7.5-23.59-4.44-8.58-15-11.94-23.58-7.5"/>
    <path class="cls-9" d="M1847.57,1260.04c5.92,14.29,8.07,29.97,6.23,45.33l-.31,2.56-2.38,.99c-14.28,5.97-29.94,8.19-45.31,6.41-15.84-1.84-30.97-7.92-43.77-17.58-12.79-9.66-22.78-22.56-28.88-37.29-5.92-14.29-8.07-29.97-6.23-45.33l.31-2.56,2.37-.99c14.28-5.97,29.94-8.19,45.31-6.41,15.84,1.84,30.97,7.92,43.77,17.58,12.79,9.66,22.78,22.56,28.88,37.29m-106.24-2.96c5.5,13.28,14.5,24.91,26.04,33.62,11.54,8.71,25.18,14.2,39.46,15.85,13,1.51,26.24-.16,38.47-4.82,1.14-13.03-.88-26.22-5.89-38.32-5.5-13.28-14.5-24.91-26.04-33.62-11.54-8.71-25.18-14.2-39.46-15.85-13-1.51-26.24,.16-38.47,4.82-1.14,13.03,.88,26.22,5.89,38.32"/>
    <path class="cls-9" d="M1762.38,1239.11c11.67-15.46,33.67-18.52,49.12-6.85,15.46,11.67,18.52,33.67,6.85,49.12-11.67,15.45-33.67,18.52-49.12,6.85-15.45-11.67-18.52-33.67-6.85-49.12"/>
    <path class="cls-9" d="M1762.38,1239.11c11.67-15.46,33.67-18.52,49.12-6.85,15.46,11.67,18.52,33.67,6.85,49.12-11.67,15.45-33.67,18.52-49.12,6.85-15.45-11.67-18.52-33.67-6.85-49.12"/>
    <path class="cls-9" d="M1794.13,1330.78c5.92,14.29,8.07,29.97,6.23,45.33l-.31,2.56-2.38,.99c-14.28,5.97-29.94,8.19-45.31,6.41-15.84-1.84-30.97-7.92-43.77-17.58-12.79-9.66-22.78-22.56-28.88-37.29-5.92-14.29-8.07-29.97-6.23-45.33l.31-2.56,2.37-.99c14.28-5.97,29.94-8.19,45.31-6.41,15.84,1.84,30.97,7.92,43.77,17.58,12.79,9.66,22.78,22.56,28.88,37.29m-106.24-2.96c5.5,13.28,14.5,24.91,26.04,33.62,11.54,8.71,25.18,14.2,39.46,15.85,13,1.51,26.24-.16,38.47-4.82,1.14-13.03-.88-26.22-5.89-38.32-5.5-13.28-14.5-24.91-26.04-33.62-11.54-8.71-25.18-14.2-39.46-15.85-13-1.51-26.24,.16-38.47,4.82-1.14,13.03,.88,26.22,5.89,38.32"/>
    <path class="cls-9" d="M1708.95,1309.85c11.67-15.45,33.67-18.52,49.12-6.85,15.46,11.67,18.52,33.67,6.85,49.12-11.67,15.45-33.67,18.52-49.12,6.85-15.45-11.67-18.52-33.67-6.85-49.12"/>
    <path class="cls-9" d="M1708.95,1309.85c11.67-15.45,33.67-18.52,49.12-6.85,15.46,11.67,18.52,33.67,6.85,49.12-11.67,15.45-33.67,18.52-49.12,6.85-15.45-11.67-18.52-33.67-6.85-49.12"/>
    <rect class="cls-9" x="1758.51" y="1213.32" width="8.83" height="162.46" transform="translate(-332.6 1921.11) rotate(-52.94)"/>
    <path class="cls-9" d="M1838.29,1329.55c-7.71-5.83-18.69-4.3-24.51,3.42-5.83,7.71-4.3,18.69,3.42,24.51,7.71,5.83,18.69,4.3,24.51-3.42,5.82-7.71,4.3-18.69-3.42-24.51"/>
    <path class="cls-9" d="M2376.01,598.11c-11.69,10.13-25.88,17.12-41.04,20.23l-2.52,.52-1.69-1.94c-10.18-11.66-17.23-25.82-20.39-40.96-3.26-15.61-2.27-31.89,2.85-47.08,5.13-15.19,14.21-28.74,26.26-39.18,11.69-10.13,25.88-17.12,41.04-20.23l2.52-.52,1.69,1.94c10.18,11.66,17.23,25.82,20.39,40.96,3.26,15.61,2.27,31.89-2.85,47.08-5.13,15.19-14.21,28.74-26.26,39.18m-30.75-101.74c-10.86,9.41-19.05,21.63-23.67,35.32-4.62,13.7-5.51,28.38-2.57,42.45,2.68,12.81,8.44,24.85,16.72,34.97,12.72-3.03,24.6-9.12,34.5-17.69,10.86-9.41,19.05-21.63,23.67-35.33,4.62-13.7,5.51-28.38,2.57-42.45-2.68-12.81-8.44-24.85-16.72-34.98-12.72,3.03-24.6,9.12-34.5,17.69"/>
    <path class="cls-9" d="M2368.96,510.67c18.35,6.19,28.21,26.09,22.01,44.44-6.19,18.35-26.09,28.21-44.44,22.01-18.35-6.19-28.21-26.09-22.01-44.44,6.19-18.35,26.09-28.21,44.44-22.01"/>
    <path class="cls-9" d="M2368.96,510.67c18.35,6.19,28.21,26.09,22.01,44.44-6.19,18.35-26.09,28.21-44.44,22.01-18.35-6.19-28.21-26.09-22.01-44.44,6.19-18.35,26.09-28.21,44.44-22.01"/>
    <path class="cls-9" d="M2292.01,569.76c-11.69,10.13-25.88,17.12-41.04,20.23l-2.52,.52-1.69-1.94c-10.18-11.66-17.23-25.82-20.39-40.96-3.26-15.61-2.27-31.89,2.85-47.08,5.13-15.19,14.21-28.74,26.26-39.18,11.69-10.13,25.88-17.12,41.04-20.23l2.52-.52,1.69,1.94c10.18,11.66,17.23,25.82,20.39,40.96,3.26,15.61,2.27,31.89-2.85,47.08-5.13,15.19-14.21,28.74-26.26,39.18m-30.75-101.74c-10.86,9.41-19.05,21.63-23.67,35.32-4.62,13.7-5.51,28.38-2.57,42.45,2.68,12.81,8.44,24.85,16.72,34.97,12.72-3.03,24.6-9.12,34.5-17.69,10.86-9.41,19.05-21.63,23.67-35.33,4.62-13.7,5.51-28.38,2.57-42.45-2.68-12.81-8.44-24.85-16.72-34.98-12.72,3.03-24.6,9.12-34.5,17.69"/>
    <path class="cls-9" d="M2284.96,482.32c18.35,6.19,28.21,26.09,22.01,44.44-6.19,18.35-26.09,28.21-44.44,22.01-18.35-6.19-28.21-26.09-22.01-44.44,6.19-18.35,26.09-28.21,44.44-22.01"/>
    <path class="cls-9" d="M2284.96,482.32c18.35,6.19,28.21,26.09,22.01,44.44-6.19,18.35-26.09,28.21-44.44,22.01-18.35-6.19-28.21-26.09-22.01-44.44,6.19-18.35,26.09-28.21,44.44-22.01"/>
    <rect class="cls-9" x="2235.3" y="524.29" width="162.46" height="8.83" transform="translate(1074.79 2554.52) rotate(-71.35)"/>
    <path class="cls-9" d="M2307.13,611.27c3.09-9.16-1.83-19.09-10.98-22.18-9.16-3.09-19.09,1.83-22.18,10.98-3.09,9.16,1.83,19.09,10.98,22.18,9.16,3.09,19.09-1.83,22.18-10.98"/>
    <path class="cls-9" d="M2371.83,1357.23c-14.88,4.22-30.7,4.54-45.75,.93l-2.5-.6-.71-2.47c-4.28-14.87-4.66-30.69-1.11-45.74,3.66-15.52,11.45-29.85,22.53-41.43,11.08-11.59,25.05-20.01,40.39-24.36,14.88-4.22,30.7-4.54,45.75-.93l2.5,.6,.71,2.47c4.28,14.87,4.66,30.69,1.11,45.74-3.66,15.52-11.45,29.85-22.53,41.43-11.08,11.58-25.05,20.01-40.39,24.36m15.25-105.18c-13.83,3.92-26.42,11.52-36.41,21.97-9.99,10.45-17.02,23.37-20.32,37.36-3.01,12.74-2.89,26.09,.32,38.77,12.81,2.64,26.15,2.17,38.74-1.4,13.83-3.92,26.42-11.52,36.41-21.96,9.99-10.45,17.02-23.37,20.32-37.36,3.01-12.74,2.89-26.09-.32-38.77-12.81-2.64-26.15-2.17-38.74,1.4"/>
    <path class="cls-9" d="M2402.49,1275.04c14,13.39,14.49,35.59,1.11,49.58-13.39,14-35.59,14.49-49.58,1.11-14-13.39-14.49-35.59-1.1-49.58,13.39-14,35.59-14.49,49.58-1.11"/>
    <path class="cls-9" d="M2402.49,1275.04c14,13.39,14.49,35.59,1.11,49.58-13.39,14-35.59,14.49-49.58,1.11-14-13.39-14.49-35.59-1.1-49.58,13.39-14,35.59-14.49,49.58-1.11"/>
    <path class="cls-9" d="M2307.76,1295.96c-14.88,4.22-30.7,4.54-45.75,.93l-2.5-.6-.71-2.47c-4.28-14.87-4.66-30.69-1.11-45.74,3.66-15.52,11.45-29.85,22.53-41.43,11.08-11.59,25.05-20.01,40.39-24.36,14.88-4.22,30.7-4.54,45.75-.93l2.5,.6,.71,2.47c4.28,14.87,4.66,30.69,1.11,45.74-3.66,15.52-11.45,29.85-22.53,41.43-11.08,11.59-25.05,20.01-40.39,24.36m15.25-105.18c-13.83,3.92-26.42,11.52-36.41,21.97-9.99,10.45-17.02,23.37-20.32,37.36-3.01,12.74-2.89,26.09,.32,38.77,12.81,2.64,26.15,2.17,38.74-1.4,13.83-3.92,26.42-11.52,36.41-21.96,9.99-10.45,17.02-23.37,20.32-37.36,3.01-12.74,2.89-26.09-.32-38.77-12.81-2.64-26.15-2.17-38.74,1.4"/>
    <path class="cls-9" d="M2338.42,1213.77c14,13.39,14.49,35.59,1.11,49.59-13.39,14-35.59,14.49-49.58,1.11-14-13.39-14.49-35.59-1.1-49.58,13.39-14,35.59-14.49,49.58-1.11"/>
    <path class="cls-9" d="M2338.42,1213.77c14,13.39,14.49,35.59,1.11,49.59-13.39,14-35.59,14.49-49.58,1.11-14-13.39-14.49-35.59-1.1-49.58,13.39-14,35.59-14.49,49.58-1.11"/>
    <rect class="cls-9" x="2266.13" y="1264.75" width="162.46" height="8.83" transform="translate(-192.31 2088.28) rotate(-46.28)"/>
    <path class="cls-9" d="M2303.86,1339.96c6.68-6.98,6.43-18.06-.55-24.74-6.99-6.68-18.06-6.43-24.74,.55-6.68,6.98-6.43,18.06,.55,24.74,6.98,6.68,18.06,6.43,24.74-.55"/>
    <path class="cls-9" d="M2648.81,349.77c5.92,14.29,8.07,29.97,6.23,45.33l-.31,2.56-2.38,.99c-14.28,5.97-29.94,8.19-45.31,6.41-15.84-1.84-30.98-7.92-43.77-17.58-12.79-9.66-22.78-22.56-28.88-37.29-5.92-14.29-8.07-29.97-6.23-45.33l.31-2.56,2.37-.99c14.28-5.97,29.94-8.19,45.31-6.41,15.84,1.84,30.97,7.92,43.77,17.58,12.79,9.66,22.78,22.56,28.88,37.29m-106.24-2.96c5.5,13.28,14.5,24.91,26.04,33.62,11.54,8.71,25.18,14.2,39.46,15.85,13,1.51,26.24-.16,38.47-4.82,1.14-13.03-.88-26.22-5.89-38.32-5.5-13.28-14.5-24.91-26.04-33.62-11.54-8.71-25.18-14.2-39.46-15.85-13-1.51-26.25,.16-38.47,4.82-1.14,13.03,.88,26.22,5.89,38.32"/>
    <path class="cls-9" d="M2563.62,328.84c11.67-15.45,33.67-18.52,49.12-6.85,15.45,11.67,18.52,33.67,6.85,49.12-11.67,15.45-33.67,18.52-49.12,6.85-15.45-11.67-18.52-33.67-6.85-49.12"/>
    <path class="cls-9" d="M2563.62,328.84c11.67-15.45,33.67-18.52,49.12-6.85,15.45,11.67,18.52,33.67,6.85,49.12-11.67,15.45-33.67,18.52-49.12,6.85-15.45-11.67-18.52-33.67-6.85-49.12"/>
    <path class="cls-9" d="M2595.37,420.51c5.92,14.29,8.07,29.97,6.23,45.33l-.31,2.56-2.37,.99c-14.28,5.97-29.94,8.19-45.31,6.41-15.84-1.84-30.98-7.92-43.77-17.58-12.79-9.66-22.78-22.56-28.88-37.29-5.92-14.29-8.07-29.97-6.23-45.33l.31-2.56,2.37-.99c14.28-5.97,29.94-8.19,45.31-6.41,15.84,1.84,30.97,7.92,43.77,17.58,12.79,9.66,22.78,22.56,28.88,37.29m-106.24-2.96c5.5,13.28,14.5,24.91,26.04,33.62,11.54,8.71,25.18,14.2,39.46,15.85,13,1.51,26.24-.16,38.47-4.82,1.14-13.03-.88-26.22-5.89-38.32-5.5-13.28-14.5-24.91-26.04-33.62-11.54-8.71-25.18-14.2-39.46-15.85-13-1.51-26.25,.16-38.47,4.82-1.14,13.03,.88,26.22,5.89,38.32"/>
    <path class="cls-9" d="M2510.19,399.58c11.67-15.45,33.67-18.52,49.12-6.85,15.45,11.67,18.52,33.67,6.85,49.12-11.67,15.45-33.67,18.52-49.12,6.85-15.45-11.67-18.52-33.67-6.85-49.12"/>
    <path class="cls-9" d="M2510.19,399.58c11.67-15.45,33.67-18.52,49.12-6.85,15.45,11.67,18.52,33.67,6.85,49.12-11.67,15.45-33.67,18.52-49.12,6.85-15.45-11.67-18.52-33.67-6.85-49.12"/>
    <rect class="cls-9" x="2559.75" y="303.06" width="8.83" height="162.46" transform="translate(712.11 2198.81) rotate(-52.94)"/>
    <path class="cls-9" d="M2639.54,419.28c-7.71-5.82-18.69-4.3-24.51,3.42-5.83,7.71-4.3,18.69,3.42,24.51,7.71,5.83,18.69,4.3,24.51-3.42,5.82-7.71,4.3-18.69-3.42-24.51"/>
    <path class="cls-9" d="M363.96,797.72c-14.73,4.73-30.53,5.6-45.69,2.51l-2.52-.51-.8-2.45c-4.79-14.72-5.72-30.51-2.69-45.68,3.12-15.64,10.42-30.23,21.09-42.19,10.67-11.96,24.34-20.86,39.52-25.74,14.73-4.73,30.52-5.6,45.69-2.51l2.52,.51,.8,2.45c4.79,14.71,5.72,30.51,2.69,45.68-3.12,15.64-10.42,30.23-21.09,42.19-10.67,11.96-24.34,20.86-39.52,25.74m11.61-105.65c-13.68,4.4-26.01,12.42-35.63,23.21-9.62,10.79-16.2,23.94-19.02,38.04-2.56,12.84-1.98,26.17,1.67,38.73,12.89,2.2,26.21,1.26,38.67-2.74,13.68-4.4,26.01-12.42,35.63-23.21,9.62-10.79,16.2-23.94,19.02-38.04,2.56-12.84,1.98-26.17-1.66-38.73-12.89-2.2-26.21-1.26-38.67,2.74"/>
    <path class="cls-9" d="M391.76,714.52c14.45,12.9,15.71,35.06,2.82,49.52s-35.07,15.71-49.52,2.82c-14.45-12.89-15.71-35.06-2.82-49.52,12.89-14.45,35.07-15.71,49.52-2.82"/>
    <path class="cls-9" d="M391.76,714.52c14.45,12.9,15.71,35.06,2.82,49.52s-35.07,15.71-49.52,2.82c-14.45-12.89-15.71-35.06-2.82-49.52,12.89-14.45,35.07-15.71,49.52-2.82"/>
    <path class="cls-9" d="M297.81,738.69c-14.73,4.73-30.52,5.6-45.69,2.51l-2.52-.51-.8-2.45c-4.79-14.72-5.72-30.51-2.69-45.68,3.12-15.64,10.42-30.23,21.09-42.19,10.67-11.96,24.34-20.86,39.52-25.74,14.73-4.73,30.52-5.6,45.69-2.51l2.52,.51,.8,2.45c4.79,14.71,5.72,30.51,2.69,45.68-3.12,15.64-10.41,30.23-21.09,42.19-10.67,11.96-24.34,20.86-39.52,25.74m11.61-105.65c-13.68,4.4-26.01,12.42-35.63,23.21-9.62,10.79-16.2,23.94-19.02,38.04-2.56,12.84-1.98,26.17,1.66,38.73,12.89,2.2,26.21,1.26,38.67-2.74,13.68-4.4,26.01-12.42,35.63-23.21,9.62-10.79,16.2-23.94,19.02-38.04,2.56-12.84,1.98-26.17-1.67-38.73-12.89-2.2-26.21-1.26-38.67,2.74"/>
    <path class="cls-9" d="M325.61,655.5c14.45,12.9,15.71,35.06,2.82,49.52s-35.07,15.71-49.52,2.82c-14.45-12.9-15.71-35.07-2.82-49.52,12.9-14.45,35.07-15.71,49.52-2.82"/>
    <path class="cls-9" d="M325.61,655.5c14.45,12.9,15.71,35.06,2.82,49.52s-35.07,15.71-49.52,2.82c-14.45-12.9-15.71-35.07-2.82-49.52,12.9-14.45,35.07-15.71,49.52-2.82"/>
    <rect class="cls-9" x="255.23" y="706.13" width="162.46" height="8.83" transform="translate(-417.74 488.59) rotate(-48.26)"/>
    <path class="cls-9" d="M295.43,782.81c6.43-7.21,5.8-18.27-1.41-24.71-7.21-6.43-18.27-5.8-24.71,1.41-6.43,7.21-5.81,18.27,1.41,24.71,7.21,6.43,18.27,5.8,24.71-1.41"/>
    <path class="cls-9" d="M599.98,565.63c3.36-15.1,10.6-29.17,20.94-40.69l1.72-1.92,2.51,.55c15.12,3.31,29.22,10.49,40.77,20.77,11.91,10.6,20.81,24.27,25.73,39.52,4.92,15.26,5.69,31.55,2.22,47.11-3.36,15.1-10.6,29.17-20.94,40.69l-1.72,1.92-2.51-.55c-15.12-3.31-29.22-10.49-40.77-20.77-11.91-10.6-20.81-24.27-25.73-39.53-4.92-15.26-5.69-31.55-2.22-47.11m85.28,63.43c3.13-14.03,2.43-28.72-2.01-42.48-4.44-13.76-12.46-26.08-23.2-35.64-9.78-8.7-21.58-14.94-34.26-18.15-8.42,10.01-14.34,21.97-17.19,34.75-3.13,14.03-2.43,28.72,2.01,42.48,4.44,13.76,12.46,26.08,23.2,35.64,9.78,8.7,21.57,14.94,34.26,18.15,8.42-10.01,14.34-21.97,17.19-34.75"/>
    <path class="cls-9" d="M657.7,631.69c-18.43,5.95-38.2-4.17-44.15-22.6-5.95-18.43,4.17-38.2,22.6-44.15,18.43-5.95,38.2,4.17,44.15,22.6,5.95,18.43-4.17,38.2-22.6,44.15"/>
    <path class="cls-9" d="M657.7,631.69c-18.43,5.95-38.2-4.17-44.15-22.6-5.95-18.43,4.17-38.2,22.6-44.15,18.43-5.95,38.2,4.17,44.15,22.6,5.95,18.43-4.17,38.2-22.6,44.15"/>
    <path class="cls-9" d="M684.35,538.41c3.36-15.1,10.6-29.17,20.94-40.69l1.72-1.92,2.51,.55c15.12,3.31,29.22,10.49,40.77,20.77,11.91,10.6,20.81,24.27,25.73,39.52,4.92,15.26,5.69,31.55,2.22,47.11-3.36,15.1-10.6,29.17-20.94,40.69l-1.72,1.92-2.51-.55c-15.12-3.31-29.22-10.49-40.77-20.77-11.91-10.6-20.81-24.27-25.73-39.52-4.92-15.26-5.69-31.55-2.22-47.11m85.28,63.43c3.13-14.03,2.43-28.72-2.01-42.48-4.44-13.76-12.46-26.08-23.2-35.64-9.78-8.7-21.58-14.94-34.26-18.15-8.42,10.01-14.34,21.97-17.19,34.75-3.13,14.03-2.43,28.72,2.01,42.48,4.44,13.76,12.46,26.08,23.2,35.64,9.78,8.7,21.58,14.94,34.26,18.15,8.42-10.01,14.34-21.97,17.19-34.75"/>
    <path class="cls-9" d="M742.07,604.46c-18.43,5.95-38.2-4.17-44.15-22.6-5.95-18.43,4.17-38.2,22.6-44.15,18.43-5.95,38.2,4.17,44.15,22.6,5.95,18.43-4.17,38.2-22.6,44.15"/>
    <path class="cls-9" d="M742.07,604.46c-18.43,5.95-38.2-4.17-44.15-22.6-5.95-18.43,4.17-38.2,22.6-44.15,18.43-5.95,38.2,4.17,44.15,22.6,5.95,18.43-4.17,38.2-22.6,44.15"/>
    <rect class="cls-9" x="684.67" y="504.75" width="8.83" height="162.46" transform="translate(-146.66 239.95) rotate(-17.89)"/>
    <path class="cls-9" d="M647.49,514.05c2.97,9.2,12.83,14.25,22.03,11.28,9.2-2.97,14.25-12.83,11.28-22.03-2.97-9.2-12.83-14.25-22.03-11.28-9.2,2.97-14.25,12.83-11.28,22.03"/>
    <path class="cls-9" d="M915.96,1084.41c3.36-15.1,10.6-29.17,20.94-40.69l1.72-1.92,2.51,.55c15.12,3.31,29.22,10.49,40.77,20.77,11.91,10.6,20.81,24.27,25.73,39.52,4.92,15.26,5.69,31.55,2.22,47.11-3.36,15.1-10.6,29.17-20.94,40.69l-1.72,1.92-2.51-.55c-15.12-3.31-29.22-10.49-40.77-20.77-11.91-10.6-20.81-24.27-25.73-39.52-4.92-15.26-5.69-31.55-2.22-47.11m85.28,63.43c3.13-14.03,2.43-28.72-2.01-42.48-4.44-13.76-12.46-26.08-23.2-35.64-9.78-8.7-21.58-14.94-34.26-18.15-8.42,10.01-14.34,21.97-17.19,34.75-3.13,14.03-2.43,28.72,2.01,42.48,4.44,13.76,12.46,26.08,23.2,35.64,9.78,8.7,21.57,14.94,34.26,18.15,8.42-10.01,14.34-21.97,17.19-34.75"/>
    <path class="cls-9" d="M973.68,1150.46c-18.43,5.95-38.2-4.17-44.15-22.6-5.95-18.43,4.17-38.2,22.6-44.15,18.43-5.95,38.2,4.17,44.15,22.6,5.95,18.43-4.17,38.2-22.6,44.15"/>
    <path class="cls-9" d="M973.68,1150.46c-18.43,5.95-38.2-4.17-44.15-22.6-5.95-18.43,4.17-38.2,22.6-44.15,18.43-5.95,38.2,4.17,44.15,22.6,5.95,18.43-4.17,38.2-22.6,44.15"/>
    <path class="cls-9" d="M1000.33,1057.18c3.36-15.1,10.6-29.17,20.94-40.69l1.72-1.92,2.51,.55c15.12,3.31,29.22,10.49,40.77,20.77,11.91,10.6,20.81,24.27,25.74,39.52,4.92,15.26,5.69,31.55,2.22,47.11-3.36,15.1-10.6,29.17-20.94,40.69l-1.72,1.92-2.51-.55c-15.12-3.31-29.22-10.49-40.77-20.78-11.91-10.6-20.81-24.27-25.73-39.52-4.92-15.26-5.69-31.55-2.22-47.11m85.28,63.43c3.13-14.03,2.43-28.72-2.01-42.48-4.44-13.76-12.46-26.08-23.2-35.64-9.78-8.7-21.58-14.94-34.26-18.15-8.42,10.01-14.34,21.97-17.19,34.75-3.13,14.03-2.43,28.72,2.01,42.48,4.44,13.76,12.46,26.08,23.2,35.64,9.78,8.7,21.57,14.94,34.26,18.15,8.42-10.01,14.34-21.97,17.19-34.75"/>
    <path class="cls-9" d="M1058.05,1123.23c-18.43,5.95-38.2-4.17-44.15-22.6-5.95-18.43,4.17-38.2,22.6-44.15,18.43-5.95,38.2,4.17,44.15,22.6,5.95,18.43-4.17,38.2-22.6,44.15"/>
    <path class="cls-9" d="M1058.05,1123.23c-18.43,5.95-38.2-4.17-44.15-22.6-5.95-18.43,4.17-38.2,22.6-44.15,18.43-5.95,38.2,4.17,44.15,22.6,5.95,18.43-4.17,38.2-22.6,44.15"/>
    <rect class="cls-9" x="1000.65" y="1023.53" width="8.83" height="162.46" transform="translate(-290.71 362.06) rotate(-17.89)"/>
    <path class="cls-9" d="M963.47,1032.83c2.97,9.2,12.83,14.25,22.03,11.28,9.2-2.97,14.25-12.83,11.28-22.03-2.97-9.2-12.83-14.25-22.03-11.28-9.2,2.97-14.25,12.83-11.28,22.03"/>
    <path class="cls-9" d="M542.85,867.97c-8.66-12.82-13.91-27.74-15.19-43.16l-.21-2.57,2.13-1.45c12.79-8.71,27.7-14.03,43.1-15.36,15.89-1.38,31.93,1.55,46.4,8.45,14.47,6.9,26.84,17.53,35.77,30.75,8.66,12.82,13.91,27.74,15.19,43.16l.21,2.57-2.13,1.45c-12.79,8.71-27.69,14.03-43.1,15.36-15.89,1.38-31.93-1.55-46.4-8.45-14.47-6.9-26.84-17.53-35.76-30.75m104.68-18.4c-8.05-11.91-19.2-21.49-32.25-27.72-13.05-6.23-27.52-8.86-41.84-7.62-13.04,1.13-25.68,5.41-36.72,12.43,1.49,12.99,6.12,25.52,13.45,36.36,8.05,11.91,19.2,21.5,32.25,27.72,13.05,6.22,27.51,8.86,41.84,7.62,13.04-1.13,25.68-5.41,36.72-12.43-1.49-12.99-6.12-25.52-13.45-36.36"/>
    <path class="cls-9" d="M630.5,871.4c-8.34,17.48-29.27,24.89-46.75,16.55-17.48-8.34-24.89-29.27-16.55-46.75,8.34-17.48,29.27-24.89,46.75-16.55,17.48,8.34,24.89,29.27,16.55,46.75"/>
    <path class="cls-9" d="M630.5,871.4c-8.34,17.48-29.27,24.89-46.75,16.55-17.48-8.34-24.89-29.27-16.55-46.75,8.34-17.48,29.27-24.89,46.75-16.55,17.48,8.34,24.89,29.27,16.55,46.75"/>
    <path class="cls-9" d="M581.02,787.95c-8.66-12.82-13.91-27.74-15.19-43.16l-.21-2.56,2.13-1.45c12.79-8.72,27.7-14.03,43.1-15.36,15.89-1.38,31.93,1.55,46.4,8.45,14.47,6.9,26.84,17.53,35.77,30.75,8.66,12.82,13.91,27.74,15.19,43.17l.21,2.57-2.13,1.45c-12.79,8.71-27.69,14.02-43.1,15.36-15.89,1.38-31.93-1.55-46.4-8.45-14.47-6.9-26.84-17.53-35.76-30.75m104.68-18.4c-8.05-11.91-19.2-21.49-32.25-27.72-13.05-6.22-27.52-8.86-41.84-7.62-13.04,1.13-25.68,5.41-36.72,12.43,1.49,12.99,6.12,25.52,13.45,36.36,8.05,11.91,19.2,21.49,32.25,27.72,13.05,6.22,27.51,8.86,41.84,7.62,13.04-1.13,25.68-5.41,36.72-12.43-1.49-12.99-6.12-25.52-13.45-36.36"/>
    <path class="cls-9" d="M668.67,791.38c-8.34,17.48-29.27,24.89-46.75,16.55-17.48-8.34-24.89-29.27-16.55-46.75,8.34-17.48,29.27-24.89,46.75-16.55,17.48,8.34,24.89,29.27,16.55,46.75"/>
    <path class="cls-9" d="M668.67,791.38c-8.34,17.48-29.27,24.89-46.75,16.55-17.48-8.34-24.89-29.27-16.55-46.75,8.34-17.48,29.27-24.89,46.75-16.55,17.48,8.34,24.89,29.27,16.55,46.75"/>
    <rect class="cls-9" x="614.43" y="735.96" width="8.83" height="162.46" transform="translate(-385.18 1023.83) rotate(-64.49)"/>
    <path class="cls-9" d="M538,798.01c8.72,4.16,19.17,.46,23.33-8.26,4.16-8.72,.46-19.17-8.26-23.33-8.72-4.16-19.17-.46-23.33,8.26-4.16,8.72-.46,19.17,8.26,23.33"/>
    <path class="cls-9" d="M262.93,917.61c11.73-10.08,25.96-17.01,41.13-20.05l2.52-.5,1.68,1.95c10.13,11.7,17.12,25.9,20.21,41.05,3.19,15.62,2.13,31.9-3.06,47.07-5.19,15.17-14.33,28.67-26.43,39.06-11.74,10.08-25.96,17.01-41.13,20.05l-2.52,.51-1.68-1.95c-10.13-11.7-17.12-25.9-20.21-41.05-3.19-15.62-2.13-31.9,3.06-47.06,5.19-15.17,14.33-28.67,26.43-39.06m30.31,101.87c10.9-9.36,19.14-21.54,23.83-35.22,4.68-13.68,5.64-28.35,2.76-42.43-2.62-12.82-8.33-24.89-16.57-35.05-12.74,2.98-24.64,9.01-34.57,17.54-10.9,9.36-19.14,21.54-23.83,35.22-4.68,13.68-5.64,28.35-2.76,42.43,2.62,12.82,8.33,24.89,16.57,35.05,12.74-2.98,24.64-9.01,34.57-17.54"/>
    <path class="cls-9" d="M269.6,1005.08c-18.32-6.27-28.09-26.22-21.82-44.54,6.27-18.33,26.21-28.09,44.54-21.82,18.32,6.27,28.09,26.22,21.82,44.54-6.27,18.33-26.21,28.09-44.54,21.82"/>
    <path class="cls-9" d="M269.6,1005.08c-18.32-6.27-28.09-26.22-21.82-44.54,6.27-18.33,26.21-28.09,44.54-21.82,18.32,6.27,28.09,26.22,21.82,44.54-6.27,18.33-26.21,28.09-44.54,21.82"/>
    <path class="cls-9" d="M346.81,946.33c11.73-10.08,25.96-17.01,41.13-20.05l2.52-.51,1.68,1.95c10.13,11.7,17.12,25.9,20.21,41.05,3.19,15.62,2.13,31.9-3.06,47.07-5.19,15.17-14.33,28.67-26.43,39.06-11.74,10.08-25.96,17.01-41.13,20.05l-2.52,.51-1.68-1.95c-10.13-11.7-17.12-25.9-20.21-41.05-3.19-15.62-2.13-31.9,3.06-47.07,5.19-15.17,14.33-28.67,26.43-39.06m30.31,101.87c10.9-9.36,19.14-21.54,23.83-35.22,4.68-13.68,5.64-28.35,2.76-42.43-2.62-12.82-8.33-24.89-16.57-35.05-12.74,2.98-24.64,9.01-34.57,17.54-10.9,9.36-19.14,21.54-23.83,35.22-4.68,13.68-5.64,28.35-2.76,42.43,2.62,12.82,8.33,24.89,16.57,35.05,12.74-2.98,24.64-9.01,34.57-17.54"/>
    <path class="cls-9" d="M353.48,1033.79c-18.33-6.27-28.09-26.22-21.82-44.54,6.27-18.33,26.21-28.09,44.54-21.82,18.32,6.27,28.09,26.22,21.82,44.54-6.27,18.33-26.21,28.09-44.54,21.82"/>
    <path class="cls-9" d="M353.48,1033.79c-18.33-6.27-28.09-26.22-21.82-44.54,6.27-18.33,26.21-28.09,44.54-21.82,18.32,6.27,28.09,26.22,21.82,44.54-6.27,18.33-26.21,28.09-44.54,21.82"/>
    <rect class="cls-9" x="240.88" y="982.85" width="162.46" height="8.83" transform="translate(-716.27 972.29) rotate(-71.1)"/>
    <path class="cls-9" d="M331.87,904.75c-3.13,9.14,1.74,19.09,10.89,22.22,9.14,3.13,19.09-1.74,22.22-10.89,3.13-9.14-1.74-19.09-10.89-22.22-9.14-3.13-19.09,1.74-22.23,10.89"/>
    <path class="cls-9" d="M2397.4,1487.46c-4.3-14.86-4.72-30.67-1.2-45.74l.59-2.51,2.47-.73c14.85-4.37,30.66-4.84,45.74-1.38,15.54,3.57,29.91,11.28,41.56,22.29,11.65,11.01,20.15,24.93,24.59,40.24,4.31,14.86,4.72,30.67,1.19,45.74l-.59,2.51-2.47,.73c-14.85,4.37-30.66,4.84-45.74,1.38-15.54-3.57-29.91-11.28-41.56-22.29-11.65-11.01-20.15-24.93-24.59-40.24m105.27,14.64c-4-13.81-11.67-26.35-22.18-36.28-10.51-9.93-23.47-16.88-37.47-20.1-12.76-2.93-26.1-2.73-38.76,.55-2.57,12.83-2.01,26.16,1.63,38.73,4,13.8,11.67,26.35,22.18,36.28,10.51,9.93,23.46,16.88,37.47,20.1,12.76,2.93,26.1,2.74,38.76-.55,2.57-12.83,2.02-26.16-1.63-38.73"/>
    <path class="cls-9" d="M2479.76,1517.64c-13.3,14.08-35.5,14.7-49.58,1.39-14.08-13.31-14.7-35.5-1.4-49.58,13.3-14.07,35.5-14.7,49.58-1.39,14.08,13.3,14.7,35.5,1.4,49.58"/>
    <path class="cls-9" d="M2479.76,1517.64c-13.3,14.08-35.5,14.7-49.58,1.39-14.08-13.31-14.7-35.5-1.4-49.58,13.3-14.07,35.5-14.7,49.58-1.39,14.08,13.3,14.7,35.5,1.4,49.58"/>
    <path class="cls-9" d="M2458.3,1423.03c-4.31-14.86-4.72-30.67-1.2-45.74l.59-2.51,2.47-.73c14.85-4.37,30.66-4.84,45.74-1.38,15.54,3.57,29.91,11.28,41.56,22.29,11.65,11.01,20.15,24.93,24.59,40.24,4.31,14.86,4.72,30.67,1.19,45.74l-.59,2.51-2.47,.73c-14.85,4.37-30.66,4.84-45.74,1.38-15.54-3.57-29.91-11.28-41.56-22.29-11.65-11.01-20.15-24.93-24.59-40.24m105.27,14.64c-4-13.81-11.67-26.35-22.18-36.28-10.51-9.93-23.47-16.88-37.47-20.1-12.76-2.93-26.1-2.73-38.76,.55-2.57,12.83-2.01,26.16,1.63,38.73,4,13.8,11.67,26.35,22.18,36.28,10.51,9.93,23.46,16.88,37.47,20.1,12.76,2.93,26.1,2.74,38.76-.55,2.57-12.83,2.02-26.16-1.63-38.73"/>
    <path class="cls-9" d="M2540.66,1453.22c-13.3,14.08-35.5,14.7-49.58,1.39-14.08-13.31-14.7-35.5-1.4-49.58,13.3-14.08,35.5-14.7,49.58-1.39,14.08,13.3,14.7,35.5,1.4,49.58"/>
    <path class="cls-9" d="M2540.66,1453.22c-13.3,14.08-35.5,14.7-49.58,1.39-14.08-13.31-14.7-35.5-1.4-49.58,13.3-14.08,35.5-14.7,49.58-1.39,14.08,13.3,14.7,35.5,1.4,49.58"/>
    <rect class="cls-9" x="2480.9" y="1381.25" width="8.83" height="162.46" transform="translate(-284.78 2263.86) rotate(-46.61)"/>
    <path class="cls-9" d="M2414.27,1419.39c7.02,6.64,18.1,6.33,24.74-.7,6.64-7.02,6.33-18.1-.7-24.74-7.02-6.64-18.1-6.33-24.74,.7-6.64,7.02-6.33,18.1,.7,24.74"/>
  </g>
</svg>