<?xml version="1.0" encoding="UTF-8"?>
<svg id="Layer_1" data-name="Layer 1" xmlns="http://www.w3.org/2000/svg" viewBox="0 0 2880 1800">
  <defs>
    <style>
      .cls-1 {
        fill: #ff0;
      }
    </style>
  </defs>
  <g>
    <path class="cls-1" d="M1007.16,615.17c-2.34,5.33-3.64,11.22-3.64,17.42,0,24,19.46,43.46,43.46,43.46s43.46-19.46,43.46-43.46c0-4.33-.64-8.52-1.82-12.46,32.69,12.44,59.38,37.03,74.55,68.26l138.43-46.93-6.26-18.46-140.09,47.49,131.04-68.62-9.04-17.26-131.04,68.62,118.84-88.08-11.6-15.66-118.84,88.08,103.76-105.42-13.89-13.67-103.76,105.42,86.18-120.22-15.84-11.35-86.18,120.22,66.53-132.12-17.41-8.76-66.53,132.12,45.26-140.83-18.55-5.96-44.52,138.52c-.11-.07-.23-.14-.35-.21l22.51-143.62-19.25-3.02-22.04,140.62c-.29-.02-.58-.05-.86-.07v-142.34h-19.49v145.61c-.11,.05-.23,.1-.34,.15l-22.57-143.97-19.25,3.02,22.91,146.13-45.26-140.82-18.55,5.96,45.26,140.83-66.53-132.12-17.41,8.76,66.53,132.12-86.18-120.22-15.84,11.35,86.18,120.22-103.76-105.42-13.89,13.67,103.76,105.42-118.84-88.08-11.6,15.66,118.84,88.08-131.04-68.62-9.04,17.26,131.04,68.62-140.09-47.49-6.26,18.46,138.43,46.93c17.57-36.16,50.58-63.41,90.46-73.21Z"/>
    <path class="cls-1" d="M1206.55,704.81h-22.44l126.49-21.89-3.32-19.2-143.97,24.92c2.52,5.22,4.72,10.62,6.58,16.17h-259.87c1.85-5.56,4.05-10.96,6.58-16.17l-143.97-24.92-3.32,19.2,126.49,21.89h-128.91v19.49h241.51l.68,.12h30.1l.02-.12h1.53l.02,.12h30.1l.68-.12h241.51v-19.49h-106.47Z"/>
  </g>
  <g>
    <path class="cls-1" d="M667.94,592.22h-128.91l126.49-21.89-3.32-19.2-143.97,24.92c2.52,5.21,4.7,10.62,6.55,16.18h-114.94c.51-2.66,.8-5.4,.8-8.22,0-24-19.46-43.46-43.46-43.46s-43.46,19.46-43.46,43.46c0,2.81,.28,5.55,.8,8.22h-59.55c1.85-5.56,4.03-10.96,6.55-16.18l-143.97-24.92-3.32,19.2,126.49,21.89H121.78v19.49h241.51l.68,.12h30.1l.02-.12h1.53l.02,.12h30.1l.68-.12h241.51v-19.49Z"/>
    <path class="cls-1" d="M394.86,498.62c54.2,0,101.04,31.49,123.24,77.18l138.43-46.93-6.26-18.46-140.09,47.49,131.05-68.62-9.04-17.26-131.04,68.62,118.84-88.08-11.6-15.66-118.84,88.08,103.76-105.42-13.89-13.67-103.76,105.42,86.18-120.22-15.84-11.35-86.18,120.22,66.53-132.12-17.41-8.76-66.53,132.12,45.26-140.83-18.55-5.96-45.26,140.83,22.91-146.14-19.25-3.02-22.91,146.13v-147.92h-19.49v147.92l-22.91-146.14-19.25,3.02,22.91,146.13-45.26-140.82-18.55,5.96,45.26,140.83-66.53-132.12-17.41,8.76,66.53,132.12-86.18-120.22-15.84,11.35,86.18,120.22-103.76-105.42-13.89,13.67,103.76,105.42-118.84-88.08-11.6,15.66,118.84,88.08-131.04-68.62-9.04,17.26,131.05,68.62-140.09-47.49-6.26,18.46,138.43,46.93c22.2-45.68,69.03-77.18,123.24-77.18Z"/>
  </g>
  <g>
    <path class="cls-1" d="M443.66,853.76c-4.22,6.7-6.68,14.63-6.68,23.14,0,24,19.46,43.46,43.46,43.46s43.46-19.46,43.46-43.46c0-7.7-2.01-14.93-5.52-21.2,36.28,11.3,66.1,37.27,82.48,70.99l138.43-46.93-6.26-18.46-140.09,47.49,131.05-68.62-9.04-17.26-131.04,68.61,118.84-88.08-11.6-15.66-118.84,88.08,103.76-105.42-13.89-13.67-103.76,105.42,86.18-120.22-15.84-11.35-86.18,120.22,66.53-132.12-17.41-8.76-66.53,132.12,45.26-140.83-18.55-5.96-45.26,140.83,22.91-146.14-19.25-3.02-22.91,146.13v-147.92h-19.49v147.92l-22.91-146.13-19.25,3.02,22.91,146.14-45.26-140.83-18.55,5.96,45.26,140.83-66.53-132.12-17.41,8.76,66.53,132.12-86.18-120.22-15.84,11.35,86.18,120.22-103.76-105.42-13.89,13.67,103.76,105.42-118.84-88.08-11.6,15.66,118.84,88.08-131.04-68.61-9.04,17.26,131.05,68.62-140.09-47.49-6.26,18.46,138.43,46.93c17.4-35.8,49.92-62.88,89.27-72.92Z"/>
    <path class="cls-1" d="M621.78,943.12l126.5-21.89-3.32-19.2-143.97,24.92c2.52,5.21,4.7,10.62,6.55,16.18H347.72c1.85-5.56,4.03-10.96,6.55-16.18l-143.97-24.92-3.32,19.2,126.5,21.89H204.55v19.49h241.52l.68,.12h30.1l.02-.12h1.53l.02,.12h30.1l.68-.12h241.52v-19.49h-128.92Z"/>
  </g>
  <path class="cls-1" d="M1799.42,1455.24h-128.92l126.49-21.89-3.32-19.2-143.97,24.92c2.52,5.21,4.7,10.62,6.55,16.18h-186.67c6.77-7.66,10.89-17.73,10.89-28.76,0-19.52-12.86-36.03-30.57-41.52,21.83-14.72,48.12-23.33,76.44-23.33,54.2,0,101.04,31.49,123.24,77.18l138.43-46.93-6.26-18.46-140.09,47.49,131.05-68.62-9.04-17.26-131.04,68.62,118.84-88.08-11.6-15.66-118.84,88.08,103.76-105.42-13.89-13.67-103.76,105.42,86.18-120.22-15.84-11.35-86.18,120.22,66.53-132.12-17.41-8.76-66.53,132.12,45.26-140.83-18.55-5.96-45.26,140.83,22.91-146.14-19.25-3.02-22.91,146.14v-147.92h-19.49v147.92l-22.91-146.14-19.25,3.02,22.91,146.13-45.26-140.82-18.55,5.96,45.26,140.83-66.53-132.12-17.41,8.76,66.53,132.12-86.18-120.22-15.84,11.35,86.18,120.22-103.76-105.42-13.89,13.67,99.84,101.44c-.37,.08-.74,.17-1.11,.26l-113.81-84.36-11.6,15.66,106.42,78.88c-.62,.57-1.22,1.16-1.8,1.76l-116.83-61.17-9.04,17.26,115.75,60.61c-.28,.85-.54,1.7-.76,2.57l-124.03-42.05-6.26,18.46,129.92,44.05c.13,.59,.27,1.18,.42,1.76l-136.01-23.54-3.32,19.2,126.49,21.89h-128.92v19.49h241.51l.68,.12h30.1l.02-.12h1.53l.02,.12h30.1l.68-.12h241.51v-19.49Zm-400.28-7.45c1.51,2.67,3.29,5.17,5.3,7.45h-8.01c.84-2.51,1.73-5,2.71-7.45Z"/>
  <g>
    <path class="cls-1" d="M822.7,1512.72c5.14,0,10.22,.29,15.21,.84-9.31,7.97-15.21,19.8-15.21,33.01,0,24,19.46,43.46,43.46,43.46s43.46-19.46,43.46-43.46c0-.93-.04-1.86-.1-2.78,15.22,12.5,27.71,28.21,36.41,46.11l138.43-46.93-6.26-18.46-140.09,47.49,131.05-68.62-9.04-17.26-131.04,68.62,118.84-88.08-11.6-15.66-118.84,88.08,103.76-105.42-13.89-13.67-103.36,105.01s-.03-.06-.05-.08l85.83-119.73-15.84-11.35-83.57,116.57c-.19-.13-.39-.25-.59-.38l64.5-128.09-17.41-8.76-65.57,130.23c-.11-.01-.22-.03-.33-.04l44.64-138.89-18.55-5.96-45.26,140.83,22.91-146.14-19.25-3.02-22.91,146.14v-147.92h-19.49v147.92l-22.91-146.14-19.25,3.02,22.91,146.13-45.26-140.82-18.55,5.96,45.26,140.83-66.53-132.12-17.41,8.76,66.53,132.12-86.18-120.22-15.84,11.35,86.18,120.22-103.76-105.42-13.89,13.67,103.76,105.42-118.84-88.08-11.6,15.66,118.84,88.08-131.04-68.62-9.04,17.26,131.05,68.62-140.09-47.49-6.26,18.46,138.43,46.93c22.2-45.68,69.03-77.18,123.24-77.18Z"/>
    <path class="cls-1" d="M1095.77,1606.33h-128.91l126.49-21.89-3.32-19.2-143.97,24.92c2.52,5.21,4.7,10.62,6.55,16.18h-259.82c1.85-5.56,4.03-10.96,6.55-16.18l-143.97-24.92-3.32,19.2,126.49,21.89h-128.92v19.49h241.51l.68,.12h30.1l.02-.12h1.53l.02,.12h30.1l.68-.12h241.51v-19.49Z"/>
  </g>
  <g>
    <path class="cls-1" d="M2404.1,1434.47c54.2,0,101.04,31.49,123.24,77.18l138.43-46.93-6.26-18.46-140.09,47.49,131.05-68.62-9.04-17.26-131.04,68.62,118.84-88.08-11.6-15.66-118.84,88.08,103.76-105.42-13.89-13.67-103.76,105.42,86.18-120.22-15.84-11.35-86.18,120.22,66.53-132.12-17.41-8.76-66.53,132.12,45.26-140.83-18.55-5.96-45.26,140.83,22.91-146.14-19.25-3.02-22.91,146.14v-147.92h-19.49v147.92l-22.91-146.14-19.25,3.02,22.91,146.13-45.26-140.82-18.55,5.96,45.26,140.83-66.53-132.12-17.41,8.76,66.53,132.12-86.18-120.22-15.84,11.35,86.18,120.22-103.76-105.42-13.89,13.67,103.76,105.42-118.84-88.08-11.6,15.66,118.84,88.08-131.04-68.62-9.04,17.26,131.05,68.62-140.09-47.49-6.26,18.46,138.43,46.93c22.2-45.68,69.03-77.18,123.24-77.18Z"/>
    <path class="cls-1" d="M2361.54,1480.82c0,24,19.46,43.46,43.46,43.46s43.46-19.46,43.46-43.46-19.46-43.46-43.46-43.46-43.46,19.46-43.46,43.46Z"/>
    <path class="cls-1" d="M2677.18,1528.07h-128.91l126.49-21.89-3.32-19.2-143.97,24.92c2.52,5.21,4.7,10.62,6.55,16.18h-259.82c1.85-5.56,4.03-10.96,6.55-16.18l-143.97-24.92-3.32,19.2,126.49,21.89h-128.92v19.49h241.51l.68,.12h30.1l.02-.12h1.53l.02,.12h30.1l.68-.12h241.51v-19.49Z"/>
  </g>
  <g>
    <path class="cls-1" d="M2578.69,986.03c54.2,0,101.04,31.49,123.24,77.18l138.43-46.93-6.26-18.46-140.09,47.49,131.05-68.62-9.04-17.26-131.04,68.62,118.84-88.08-11.6-15.66-118.84,88.08,103.76-105.42-13.89-13.67-103.76,105.42,86.18-120.22-15.84-11.35-86.18,120.22,66.53-132.12-17.41-8.76-66.53,132.12,45.26-140.83-18.55-5.96-45.26,140.83,22.91-146.14-19.25-3.02-22.91,146.14v-147.92h-19.49v147.92l-22.91-146.14-19.25,3.02,22.91,146.13-45.26-140.82-18.55,5.96,45.26,140.83-66.53-132.12-17.41,8.76,66.53,132.12-86.18-120.22-15.84,11.35,86.18,120.22-103.76-105.42-13.89,13.67,103.76,105.42-118.84-88.08-11.6,15.66,118.84,88.08-131.04-68.62-9.04,17.26,131.05,68.62-140.09-47.49-6.26,18.46,138.43,46.93c22.2-45.68,69.03-77.18,123.24-77.18Z"/>
    <path class="cls-1" d="M2851.77,1079.64h-128.91l126.49-21.89-3.32-19.2-143.97,24.92c2.52,5.21,4.7,10.62,6.55,16.18h-85.76c-2.16-21.99-20.7-39.17-43.25-39.17s-41.09,17.18-43.25,39.17h-87.56c1.85-5.56,4.03-10.96,6.55-16.18l-143.97-24.92-3.32,19.2,126.49,21.89h-128.91v19.49h241.51l.68,.12h30.1l.02-.12h1.53l.02,.12h30.1l.68-.12h241.51v-19.49Z"/>
  </g>
</svg>