<?xml version="1.0" encoding="UTF-8"?>
<svg id="Layer_1" data-name="Layer 1" xmlns="http://www.w3.org/2000/svg" viewBox="0 0 181.95 181.73">
  <defs>
    <style>
      .cls-1 {
        fill: #ff0;
      }
    </style>
  </defs>
  <path class="cls-1" d="M119.59,177.41c-14.73,4.73-30.53,5.6-45.69,2.51l-2.52-.51-.8-2.45c-4.79-14.72-5.72-30.51-2.69-45.68,3.12-15.64,10.42-30.23,21.09-42.19,10.67-11.96,24.34-20.86,39.52-25.74,14.73-4.73,30.52-5.6,45.69-2.51l2.52,.51,.8,2.45c4.79,14.71,5.72,30.51,2.69,45.68-3.12,15.64-10.42,30.23-21.09,42.19-10.67,11.96-24.34,20.86-39.52,25.74m11.61-105.65c-13.68,4.4-26.01,12.42-35.63,23.21-9.62,10.79-16.2,23.94-19.02,38.04-2.56,12.84-1.98,26.17,1.67,38.73,12.89,2.2,26.21,1.26,38.67-2.74,13.68-4.4,26.01-12.42,35.63-23.21,9.62-10.79,16.2-23.94,19.02-38.04,2.56-12.84,1.98-26.17-1.66-38.73-12.89-2.2-26.21-1.26-38.67,2.74"/>
  <path class="cls-1" d="M147.4,94.21c14.45,12.9,15.71,35.06,2.82,49.52s-35.07,15.71-49.52,2.82c-14.45-12.89-15.71-35.06-2.82-49.52,12.89-14.45,35.07-15.71,49.52-2.82"/>
  <path class="cls-1" d="M147.4,94.21c14.45,12.9,15.71,35.06,2.82,49.52s-35.07,15.71-49.52,2.82c-14.45-12.89-15.71-35.06-2.82-49.52,12.89-14.45,35.07-15.71,49.52-2.82"/>
  <path class="cls-1" d="M53.44,118.38c-14.73,4.73-30.52,5.6-45.69,2.51l-2.52-.51-.8-2.45C-.35,103.21-1.29,87.42,1.74,72.25c3.12-15.64,10.42-30.23,21.09-42.19,10.67-11.96,24.34-20.86,39.52-25.74C77.08-.41,92.88-1.27,108.04,1.81l2.52,.51,.8,2.45c4.79,14.71,5.72,30.51,2.69,45.68-3.12,15.64-10.41,30.23-21.09,42.19-10.67,11.96-24.34,20.86-39.52,25.74M65.05,12.74c-13.68,4.4-26.01,12.42-35.63,23.21-9.62,10.79-16.2,23.94-19.02,38.04-2.56,12.84-1.98,26.17,1.66,38.73,12.89,2.2,26.21,1.26,38.67-2.74,13.68-4.4,26.01-12.42,35.63-23.21,9.62-10.79,16.2-23.94,19.02-38.04,2.56-12.84,1.98-26.17-1.67-38.73-12.89-2.2-26.21-1.26-38.67,2.74"/>
  <path class="cls-1" d="M81.25,35.19c14.45,12.9,15.71,35.06,2.82,49.52s-35.07,15.71-49.52,2.82c-14.45-12.9-15.71-35.07-2.82-49.52,12.9-14.45,35.07-15.71,49.52-2.82"/>
  <path class="cls-1" d="M81.25,35.19c14.45,12.9,15.71,35.06,2.82,49.52s-35.07,15.71-49.52,2.82c-14.45-12.9-15.71-35.07-2.82-49.52,12.9-14.45,35.07-15.71,49.52-2.82"/>
  <rect class="cls-1" x="10.86" y="85.82" width="162.46" height="8.83" transform="translate(-36.55 98.88) rotate(-48.26)"/>
  <path class="cls-1" d="M51.07,162.5c6.43-7.21,5.8-18.27-1.41-24.71-7.21-6.43-18.27-5.8-24.71,1.41-6.43,7.21-5.81,18.27,1.41,24.71,7.21,6.43,18.27,5.8,24.71-1.41"/>
</svg>