<?xml version="1.0" encoding="UTF-8"?>
<svg id="Layer_1" data-name="Layer 1" xmlns="http://www.w3.org/2000/svg" viewBox="0 0 182.57 182.57">
  <defs>
    <style>
      .cls-1 {
        fill: #ff0;
      }
    </style>
  </defs>
  <path class="cls-1" d="M111.48,3.25c14.9,4.14,28.58,12.09,39.56,23l1.83,1.82-.68,2.48c-4.08,14.93-11.98,28.64-22.84,39.65-11.2,11.35-25.31,19.54-40.8,23.67-15.49,4.13-31.8,4.06-47.16-.2-14.9-4.14-28.58-12.09-39.56-23l-1.83-1.82,.68-2.48c4.08-14.93,11.98-28.64,22.84-39.65C34.72,15.36,48.83,7.18,64.32,3.05c15.49-4.13,31.8-4.06,47.16,.2M43.74,85.15c13.85,3.84,28.56,3.91,42.52,.18,13.97-3.73,26.69-11.1,36.78-21.34,9.19-9.32,16.03-20.78,19.89-33.28-9.57-8.92-21.21-15.45-33.82-18.95-13.85-3.84-28.56-3.91-42.52-.18-13.97,3.73-26.69,11.11-36.78,21.34-9.19,9.32-16.03,20.78-19.89,33.28,9.57,8.92,21.21,15.45,33.82,18.95"/>
  <path class="cls-1" d="M42.55,57.5c-4.99-18.71,6.13-37.93,24.85-42.92,18.71-4.99,37.93,6.13,42.93,24.85,4.99,18.71-6.13,37.93-24.85,42.92-18.72,4.99-37.93-6.13-42.93-24.85"/>
  <path class="cls-1" d="M42.55,57.5c-4.99-18.71,6.13-37.93,24.85-42.92,18.71-4.99,37.93,6.13,42.93,24.85,4.99,18.71-6.13,37.93-24.85,42.92-18.72,4.99-37.93-6.13-42.93-24.85"/>
  <path class="cls-1" d="M134.33,88.91c14.9,4.14,28.58,12.09,39.56,23l1.83,1.82-.68,2.48c-4.08,14.93-11.98,28.64-22.84,39.65-11.2,11.35-25.31,19.54-40.8,23.67-15.49,4.13-31.8,4.06-47.16-.2-14.9-4.14-28.58-12.09-39.56-23l-1.82-1.82,.68-2.48c4.08-14.93,11.98-28.64,22.84-39.65,11.2-11.35,25.31-19.53,40.8-23.67,15.49-4.13,31.8-4.06,47.16,.2m-67.74,81.9c13.85,3.84,28.56,3.91,42.52,.18,13.97-3.73,26.69-11.1,36.78-21.34,9.19-9.32,16.03-20.78,19.89-33.28-9.57-8.92-21.21-15.45-33.82-18.95-13.85-3.84-28.56-3.91-42.52-.18-13.97,3.73-26.69,11.11-36.78,21.34-9.19,9.32-16.03,20.78-19.89,33.28,9.57,8.92,21.21,15.45,33.82,18.95"/>
  <path class="cls-1" d="M65.4,143.16c-4.99-18.71,6.13-37.93,24.85-42.92,18.71-4.99,37.93,6.13,42.93,24.85,4.99,18.71-6.13,37.93-24.85,42.92-18.72,4.99-37.93-6.13-42.93-24.85"/>
  <path class="cls-1" d="M65.4,143.16c-4.99-18.71,6.13-37.93,24.85-42.92,18.71-4.99,37.93,6.13,42.93,24.85,4.99,18.71-6.13,37.93-24.85,42.92-18.72,4.99-37.93-6.13-42.93-24.85"/>
  <rect class="cls-1" x="5.35" y="86.78" width="162.46" height="8.83" transform="translate(-20.58 25.4) rotate(-14.94)"/>
  <path class="cls-1" d="M160.55,53.35c-9.34,2.49-14.89,12.08-12.4,21.42,2.49,9.34,12.08,14.89,21.42,12.4,9.34-2.49,14.89-12.08,12.4-21.42-2.49-9.34-12.08-14.89-21.42-12.4"/>
</svg>