<?xml version="1.0" encoding="UTF-8"?>
<svg id="Layer_1" data-name="Layer 1" xmlns="http://www.w3.org/2000/svg" viewBox="0 0 181.78 181.89">
  <defs>
    <style>
      .cls-1 {
        fill: #ff0;
      }
    </style>
  </defs>
  <path class="cls-1" d="M3.56,117.07c-4.3-14.86-4.72-30.67-1.2-45.74l.59-2.51,2.47-.73c14.85-4.37,30.66-4.84,45.74-1.38,15.54,3.57,29.91,11.28,41.56,22.29,11.65,11.01,20.15,24.93,24.59,40.24,4.31,14.86,4.72,30.67,1.19,45.74l-.59,2.51-2.47,.73c-14.85,4.37-30.66,4.84-45.74,1.38-15.54-3.57-29.91-11.28-41.56-22.29-11.65-11.01-20.15-24.93-24.59-40.24m105.27,14.64c-4-13.81-11.67-26.35-22.18-36.28-10.51-9.93-23.47-16.88-37.47-20.1-12.76-2.93-26.1-2.73-38.76,.55-2.57,12.83-2.01,26.16,1.63,38.73,4,13.8,11.67,26.35,22.18,36.28,10.51,9.93,23.46,16.88,37.47,20.1,12.76,2.93,26.1,2.74,38.76-.55,2.57-12.83,2.02-26.16-1.63-38.73"/>
  <path class="cls-1" d="M85.93,147.25c-13.3,14.08-35.5,14.7-49.58,1.39-14.08-13.31-14.7-35.5-1.4-49.58,13.3-14.07,35.5-14.7,49.58-1.39,14.08,13.3,14.7,35.5,1.4,49.58"/>
  <path class="cls-1" d="M85.93,147.25c-13.3,14.08-35.5,14.7-49.58,1.39-14.08-13.31-14.7-35.5-1.4-49.58,13.3-14.07,35.5-14.7,49.58-1.39,14.08,13.3,14.7,35.5,1.4,49.58"/>
  <path class="cls-1" d="M64.47,52.64c-4.31-14.86-4.72-30.67-1.2-45.74l.59-2.51,2.47-.73c14.85-4.37,30.66-4.84,45.74-1.38,15.54,3.57,29.91,11.28,41.56,22.29,11.65,11.01,20.15,24.93,24.59,40.24,4.31,14.86,4.72,30.67,1.19,45.74l-.59,2.51-2.47,.73c-14.85,4.37-30.66,4.84-45.74,1.38-15.54-3.57-29.91-11.28-41.56-22.29-11.65-11.01-20.15-24.93-24.59-40.24m105.27,14.64c-4-13.81-11.67-26.35-22.18-36.28-10.51-9.93-23.47-16.88-37.47-20.1-12.76-2.93-26.1-2.73-38.76,.55-2.57,12.83-2.01,26.16,1.63,38.73,4,13.8,11.67,26.35,22.18,36.28,10.51,9.93,23.46,16.88,37.47,20.1,12.76,2.93,26.1,2.74,38.76-.55,2.57-12.83,2.02-26.16-1.63-38.73"/>
  <path class="cls-1" d="M146.83,82.82c-13.3,14.08-35.5,14.7-49.58,1.39-14.08-13.31-14.7-35.5-1.4-49.58,13.3-14.08,35.5-14.7,49.58-1.39,14.08,13.3,14.7,35.5,1.4,49.58"/>
  <path class="cls-1" d="M146.83,82.82c-13.3,14.08-35.5,14.7-49.58,1.39-14.08-13.31-14.7-35.5-1.4-49.58,13.3-14.08,35.5-14.7,49.58-1.39,14.08,13.3,14.7,35.5,1.4,49.58"/>
  <rect class="cls-1" x="87.07" y="10.85" width="8.83" height="162.46" transform="translate(-38.28 95.31) rotate(-46.61)"/>
  <path class="cls-1" d="M20.44,49c7.02,6.64,18.1,6.33,24.74-.7,6.64-7.02,6.33-18.1-.7-24.74-7.02-6.64-18.1-6.33-24.74,.7-6.64,7.02-6.33,18.1,.7,24.74"/>
</svg>