<?xml version="1.0" encoding="UTF-8"?>
<svg id="Layer_1" data-name="Layer 1" xmlns="http://www.w3.org/2000/svg" viewBox="0 0 182.53 182.54">
  <defs>
    <style>
      .cls-1 {
        fill: #ff0;
      }
    </style>
  </defs>
  <path class="cls-1" d="M31.29,24.7C43.03,14.62,57.25,7.69,72.42,4.65l2.52-.5,1.68,1.95c10.13,11.7,17.12,25.9,20.21,41.05,3.19,15.62,2.13,31.9-3.06,47.07-5.19,15.17-14.33,28.67-26.43,39.06-11.74,10.08-25.96,17.01-41.13,20.05l-2.52,.51-1.68-1.95c-10.13-11.7-17.12-25.9-20.21-41.05-3.19-15.62-2.13-31.9,3.06-47.06,5.19-15.17,14.33-28.67,26.43-39.06m30.31,101.87c10.9-9.36,19.14-21.54,23.83-35.22,4.68-13.68,5.64-28.35,2.76-42.43-2.62-12.82-8.33-24.89-16.57-35.05-12.74,2.98-24.64,9.01-34.57,17.54-10.9,9.36-19.14,21.54-23.83,35.22-4.68,13.68-5.64,28.35-2.76,42.43,2.62,12.82,8.33,24.89,16.57,35.05,12.74-2.98,24.64-9.01,34.57-17.54"/>
  <path class="cls-1" d="M37.97,112.16c-18.32-6.27-28.09-26.22-21.82-44.54,6.27-18.33,26.21-28.09,44.54-21.82,18.32,6.27,28.09,26.22,21.82,44.54-6.27,18.33-26.21,28.09-44.54,21.82"/>
  <path class="cls-1" d="M37.97,112.16c-18.32-6.27-28.09-26.22-21.82-44.54,6.27-18.33,26.21-28.09,44.54-21.82,18.32,6.27,28.09,26.22,21.82,44.54-6.27,18.33-26.21,28.09-44.54,21.82"/>
  <path class="cls-1" d="M115.17,53.41c11.73-10.08,25.96-17.01,41.13-20.05l2.52-.51,1.68,1.95c10.13,11.7,17.12,25.9,20.21,41.05,3.19,15.62,2.13,31.9-3.06,47.07-5.19,15.17-14.33,28.67-26.43,39.06-11.74,10.08-25.96,17.01-41.13,20.05l-2.52,.51-1.68-1.95c-10.13-11.7-17.12-25.9-20.21-41.05-3.19-15.62-2.13-31.9,3.06-47.07,5.19-15.17,14.33-28.67,26.43-39.06m30.31,101.87c10.9-9.36,19.14-21.54,23.83-35.22,4.68-13.68,5.64-28.35,2.76-42.43-2.62-12.82-8.33-24.89-16.57-35.05-12.74,2.98-24.64,9.01-34.57,17.54-10.9,9.36-19.14,21.54-23.83,35.22-4.68,13.68-5.64,28.35-2.76,42.43,2.62,12.82,8.33,24.89,16.57,35.05,12.74-2.98,24.64-9.01,34.57-17.54"/>
  <path class="cls-1" d="M121.84,140.88c-18.33-6.27-28.09-26.22-21.82-44.54,6.27-18.33,26.21-28.09,44.54-21.82,18.32,6.27,28.09,26.22,21.82,44.54-6.27,18.33-26.21,28.09-44.54,21.82"/>
  <path class="cls-1" d="M121.84,140.88c-18.33-6.27-28.09-26.22-21.82-44.54,6.27-18.33,26.21-28.09,44.54-21.82,18.32,6.27,28.09,26.22,21.82,44.54-6.27,18.33-26.21,28.09-44.54,21.82"/>
  <rect class="cls-1" x="9.25" y="89.94" width="162.46" height="8.83" transform="translate(-28.1 149.4) rotate(-71.1)"/>
  <path class="cls-1" d="M100.23,11.84c-3.13,9.14,1.74,19.09,10.89,22.22,9.14,3.13,19.09-1.74,22.22-10.89,3.13-9.14-1.74-19.09-10.89-22.22-9.14-3.13-19.09,1.74-22.23,10.89"/>
</svg>