<?xml version="1.0" encoding="UTF-8"?>
<svg id="Layer_1" data-name="Layer 1" xmlns="http://www.w3.org/2000/svg" viewBox="0 0 546.16 277.54">
  <defs>
    <style>
      .cls-1 {
        fill: #ff0;
      }
    </style>
  </defs>
  <path class="cls-1" d="M546.16,257.93h-128.92l126.49-21.89-3.32-19.2-143.97,24.92c2.52,5.21,4.7,10.62,6.55,16.18H216.32c6.77-7.66,10.89-17.73,10.89-28.76,0-19.52-12.86-36.03-30.57-41.52,21.83-14.72,48.12-23.33,76.44-23.33,54.2,0,101.04,31.49,123.24,77.18l138.43-46.93-6.26-18.46-140.09,47.49,131.05-68.62-9.04-17.26-131.04,68.62,118.84-88.08-11.6-15.66-118.84,88.08,103.76-105.42-13.89-13.67-103.76,105.42,86.18-120.22-15.84-11.35-86.18,120.22L404.56,33.55l-17.41-8.76-66.53,132.12L365.89,16.08l-18.55-5.96-45.26,140.83L324.98,4.8l-19.25-3.02-22.91,146.14V0h-19.49V147.92L240.43,1.79l-19.25,3.02,22.91,146.13L198.82,10.11l-18.55,5.96,45.26,140.83L159,24.79l-17.41,8.76,66.53,132.12L121.94,45.45l-15.84,11.35,86.18,120.22L88.53,71.6l-13.89,13.67,99.84,101.44c-.37,.08-.74,.17-1.11,.26L59.56,102.61l-11.6,15.66,106.42,78.88c-.62,.57-1.22,1.16-1.8,1.76l-116.83-61.17-9.04,17.26,115.75,60.61c-.28,.85-.54,1.7-.76,2.57L17.67,176.12l-6.26,18.46,129.92,44.05c.13,.59,.27,1.18,.42,1.76L5.75,216.84l-3.32,19.2,126.49,21.89H0v19.49H241.51l.68,.12h30.1l.02-.12h1.53l.02,.12h30.1l.68-.12h241.51v-19.49Zm-400.28-7.45c1.51,2.67,3.29,5.17,5.3,7.45h-8.01c.84-2.51,1.73-5,2.71-7.45Z"/>
</svg>