<?xml version="1.0" encoding="UTF-8"?>
<svg id="Layer_1" data-name="Layer 1" xmlns="http://www.w3.org/2000/svg" viewBox="0 0 181.26 182.37">
  <defs>
    <style>
      .cls-1 {
        fill: #ff0;
      }
    </style>
  </defs>
  <path class="cls-1" d="M94.76,.13c15.45,.83,30.52,5.66,43.58,13.95l2.17,1.38-.13,2.57c-.77,15.46-5.54,30.54-13.78,43.63-8.5,13.49-20.51,24.52-34.75,31.89-14.24,7.37-30.18,10.81-46.1,9.95-15.44-.83-30.51-5.66-43.58-13.95l-2.17-1.38,.13-2.57c.77-15.46,5.54-30.54,13.78-43.63,8.5-13.49,20.51-24.52,34.75-31.89C62.9,2.71,78.84-.73,94.76,.13M46.23,94.68c14.35,.77,28.73-2.33,41.57-8.97,12.84-6.64,23.68-16.59,31.33-28.75,6.97-11.08,11.19-23.74,12.26-36.78-11.26-6.65-24.03-10.53-37.1-11.23-14.35-.77-28.73,2.33-41.57,8.97-12.84,6.64-23.68,16.59-31.33,28.75-6.97,11.08-11.19,23.74-12.26,36.78,11.26,6.65,24.03,10.53,37.1,11.23"/>
  <path class="cls-1" d="M39.11,67.93c-8.9-17.2-2.17-38.36,15.03-47.27,17.2-8.9,38.36-2.17,47.26,15.03,8.9,17.2,2.17,38.36-15.03,47.27-17.2,8.9-38.36,2.17-47.26-15.03"/>
  <path class="cls-1" d="M39.11,67.93c-8.9-17.2-2.17-38.36,15.03-47.27,17.2-8.9,38.36-2.17,47.26,15.03,8.9,17.2,2.17,38.36-15.03,47.27-17.2,8.9-38.36,2.17-47.26-15.03"/>
  <path class="cls-1" d="M135.51,78.87c15.44,.83,30.51,5.66,43.58,13.95l2.17,1.38-.13,2.57c-.77,15.46-5.54,30.54-13.78,43.63-8.5,13.49-20.51,24.52-34.75,31.89-14.24,7.37-30.18,10.81-46.1,9.95-15.44-.83-30.51-5.66-43.58-13.95l-2.17-1.38,.13-2.57c.77-15.46,5.54-30.54,13.78-43.63,8.5-13.49,20.51-24.52,34.75-31.89,14.24-7.37,30.18-10.81,46.1-9.95m-48.53,94.55c14.35,.77,28.73-2.33,41.57-8.97,12.84-6.64,23.68-16.59,31.33-28.75,6.97-11.08,11.19-23.74,12.26-36.78-11.26-6.65-24.03-10.53-37.1-11.23-14.35-.77-28.73,2.33-41.57,8.97-12.84,6.64-23.68,16.59-31.33,28.75-6.97,11.08-11.19,23.74-12.26,36.78,11.26,6.65,24.03,10.53,37.1,11.23"/>
  <path class="cls-1" d="M79.85,146.67c-8.9-17.2-2.17-38.36,15.03-47.27,17.2-8.9,38.36-2.17,47.26,15.03,8.9,17.2,2.17,38.36-15.03,47.27-17.2,8.9-38.36,2.17-47.26-15.03"/>
  <path class="cls-1" d="M79.85,146.67c-8.9-17.2-2.17-38.36,15.03-47.27,17.2-8.9,38.36-2.17,47.26,15.03,8.9,17.2,2.17,38.36-15.03,47.27-17.2,8.9-38.36,2.17-47.26-15.03"/>
  <rect class="cls-1" x="8.13" y="86.96" width="162.46" height="8.83" transform="translate(-32 51.29) rotate(-27.36)"/>
  <path class="cls-1" d="M153.46,38.5c-8.58,4.44-11.94,15-7.5,23.58,4.44,8.58,15,11.94,23.58,7.5,8.58-4.44,11.94-15,7.5-23.59-4.44-8.58-15-11.94-23.58-7.5"/>
</svg>