<?xml version="1.0" encoding="UTF-8"?>
<svg id="Layer_1" data-name="Layer 1" xmlns="http://www.w3.org/2000/svg" viewBox="0 0 181.88 181.8">
  <defs>
    <style>
      .cls-1 {
        fill: #ff0;
      }
    </style>
  </defs>
  <path class="cls-1" d="M116.55,178.38c-14.88,4.22-30.7,4.54-45.75,.93l-2.5-.6-.71-2.47c-4.28-14.87-4.66-30.69-1.11-45.74,3.66-15.52,11.45-29.85,22.53-41.43,11.08-11.59,25.05-20.01,40.39-24.36,14.88-4.22,30.7-4.54,45.75-.93l2.5,.6,.71,2.47c4.28,14.87,4.66,30.69,1.11,45.74-3.66,15.52-11.45,29.85-22.53,41.43-11.08,11.58-25.05,20.01-40.39,24.36m15.25-105.18c-13.83,3.92-26.42,11.52-36.41,21.97-9.99,10.45-17.02,23.37-20.32,37.36-3.01,12.74-2.89,26.09,.32,38.77,12.81,2.64,26.15,2.17,38.74-1.4,13.83-3.92,26.42-11.52,36.41-21.96,9.99-10.45,17.02-23.37,20.32-37.36,3.01-12.74,2.89-26.09-.32-38.77-12.81-2.64-26.15-2.17-38.74,1.4"/>
  <path class="cls-1" d="M147.22,96.19c14,13.39,14.49,35.59,1.11,49.58-13.39,14-35.59,14.49-49.58,1.11-14-13.39-14.49-35.59-1.1-49.58,13.39-14,35.59-14.49,49.58-1.11"/>
  <path class="cls-1" d="M147.22,96.19c14,13.39,14.49,35.59,1.11,49.58-13.39,14-35.59,14.49-49.58,1.11-14-13.39-14.49-35.59-1.1-49.58,13.39-14,35.59-14.49,49.58-1.11"/>
  <path class="cls-1" d="M52.48,117.1c-14.88,4.22-30.7,4.54-45.75,.93l-2.5-.6-.71-2.47c-4.28-14.87-4.66-30.69-1.11-45.74,3.66-15.52,11.45-29.85,22.53-41.43C36.02,16.19,49.99,7.77,65.33,3.42c14.88-4.22,30.7-4.54,45.75-.93l2.5,.6,.71,2.47c4.28,14.87,4.66,30.69,1.11,45.74-3.66,15.52-11.45,29.85-22.53,41.43-11.08,11.59-25.05,20.01-40.39,24.36M67.74,11.92c-13.83,3.92-26.42,11.52-36.41,21.97-9.99,10.45-17.02,23.37-20.32,37.36-3.01,12.74-2.89,26.09,.32,38.77,12.81,2.64,26.15,2.17,38.74-1.4,13.83-3.92,26.42-11.52,36.41-21.96,9.99-10.45,17.02-23.37,20.32-37.36,3.01-12.74,2.89-26.09-.32-38.77-12.81-2.64-26.15-2.17-38.74,1.4"/>
  <path class="cls-1" d="M83.14,34.91c14,13.39,14.49,35.59,1.11,49.59-13.39,14-35.59,14.49-49.58,1.11-14-13.39-14.49-35.59-1.1-49.58,13.39-14,35.59-14.49,49.58-1.11"/>
  <path class="cls-1" d="M83.14,34.91c14,13.39,14.49,35.59,1.11,49.59-13.39,14-35.59,14.49-49.58,1.11-14-13.39-14.49-35.59-1.1-49.58,13.39-14,35.59-14.49,49.58-1.11"/>
  <rect class="cls-1" x="10.85" y="85.89" width="162.46" height="8.83" transform="translate(-36.83 94.43) rotate(-46.28)"/>
  <path class="cls-1" d="M48.58,161.11c6.68-6.98,6.43-18.06-.55-24.74-6.99-6.68-18.06-6.43-24.74,.55-6.68,6.98-6.43,18.06,.55,24.74,6.98,6.68,18.06,6.43,24.74-.55"/>
</svg>