<?xml version="1.0" encoding="UTF-8"?>
<svg id="Layer_1" data-name="Layer 1" xmlns="http://www.w3.org/2000/svg" viewBox="0 0 180.97 182.41">
  <defs>
    <style>
      .cls-1 {
        fill: #ff0;
      }
    </style>
  </defs>
  <g>
    <path class="cls-1" d="M15.4,142.89C6.74,130.07,1.49,115.14,.21,99.72l-.21-2.57,2.13-1.45c12.79-8.71,27.7-14.03,43.1-15.36,15.89-1.38,31.93,1.55,46.4,8.45,14.47,6.9,26.84,17.53,35.77,30.75,8.66,12.82,13.91,27.74,15.19,43.16l.21,2.57-2.13,1.45c-12.79,8.71-27.69,14.03-43.1,15.36-15.89,1.38-31.93-1.55-46.4-8.45-14.47-6.9-26.84-17.53-35.76-30.75m104.68-18.4c-8.05-11.91-19.2-21.49-32.25-27.72-13.05-6.23-27.52-8.86-41.84-7.62-13.04,1.13-25.68,5.41-36.72,12.43,1.49,12.99,6.12,25.52,13.45,36.36,8.05,11.91,19.2,21.5,32.25,27.72,13.05,6.22,27.51,8.86,41.84,7.62,13.04-1.13,25.68-5.41,36.72-12.43-1.49-12.99-6.12-25.52-13.45-36.36"/>
    <path class="cls-1" d="M103.05,146.31c-8.34,17.48-29.27,24.89-46.75,16.55-17.48-8.34-24.89-29.27-16.55-46.75,8.34-17.48,29.27-24.89,46.75-16.55,17.48,8.34,24.89,29.27,16.55,46.75"/>
    <path class="cls-1" d="M103.05,146.31c-8.34,17.48-29.27,24.89-46.75,16.55-17.48-8.34-24.89-29.27-16.55-46.75,8.34-17.48,29.27-24.89,46.75-16.55,17.48,8.34,24.89,29.27,16.55,46.75"/>
    <path class="cls-1" d="M53.57,62.87c-8.66-12.82-13.91-27.74-15.19-43.16l-.21-2.56,2.13-1.45C53.09,6.98,67.99,1.66,83.4,.33c15.89-1.38,31.93,1.55,46.4,8.45,14.47,6.9,26.84,17.53,35.77,30.75,8.66,12.82,13.91,27.74,15.19,43.17l.21,2.57-2.13,1.45c-12.79,8.71-27.69,14.02-43.1,15.36-15.89,1.38-31.93-1.55-46.4-8.45-14.47-6.9-26.84-17.53-35.76-30.75m104.68-18.4c-8.05-11.91-19.2-21.49-32.25-27.72-13.05-6.22-27.52-8.86-41.84-7.62-13.04,1.13-25.68,5.41-36.72,12.43,1.49,12.99,6.12,25.52,13.45,36.36,8.05,11.91,19.2,21.49,32.25,27.72,13.05,6.22,27.51,8.86,41.84,7.62,13.04-1.13,25.68-5.41,36.72-12.43-1.49-12.99-6.12-25.52-13.45-36.36"/>
    <path class="cls-1" d="M141.22,66.3c-8.34,17.48-29.27,24.89-46.75,16.55-17.48-8.34-24.89-29.27-16.55-46.75,8.34-17.48,29.27-24.89,46.75-16.55,17.48,8.34,24.89,29.27,16.55,46.75"/>
    <path class="cls-1" d="M141.22,66.3c-8.34,17.48-29.27,24.89-46.75,16.55-17.48-8.34-24.89-29.27-16.55-46.75,8.34-17.48,29.27-24.89,46.75-16.55,17.48,8.34,24.89,29.27,16.55,46.75"/>
    <rect class="cls-1" x="86.98" y="10.88" width="8.83" height="162.46" transform="translate(-31.09 134.94) rotate(-64.49)"/>
  </g>
  <path class="cls-1" d="M10.55,72.93c8.72,4.16,19.17,.46,23.33-8.26,4.16-8.72,.46-19.17-8.26-23.33-8.72-4.16-19.17-.46-23.33,8.26-4.16,8.72-.46,19.17,8.26,23.33"/>
</svg>