<?xml version="1.0" encoding="UTF-8"?>
<svg id="Layer_1" data-name="Layer 1" xmlns="http://www.w3.org/2000/svg" viewBox="0 0 546.16 277.54">
  <defs>
    <style>
      .cls-1 {
        fill: #ff0;
      }
    </style>
  </defs>
  <path class="cls-1" d="M273.08,164.32c5.14,0,10.22,.29,15.21,.84-9.31,7.97-15.21,19.8-15.21,33.01,0,24,19.46,43.46,43.46,43.46s43.46-19.46,43.46-43.46c0-.93-.04-1.86-.1-2.78,15.22,12.5,27.71,28.21,36.41,46.11l138.43-46.93-6.26-18.46-140.09,47.49,131.05-68.62-9.04-17.26-131.04,68.62,118.84-88.08-11.6-15.66-118.84,88.08,103.76-105.42-13.89-13.67-103.36,105.01s-.03-.06-.05-.08l85.83-119.73-15.84-11.35-83.57,116.57c-.19-.13-.39-.25-.59-.38L404.56,33.55l-17.41-8.76-65.57,130.23c-.11-.01-.22-.03-.33-.04L365.89,16.08l-18.55-5.96-45.26,140.83L324.98,4.8l-19.25-3.02-22.91,146.14V0h-19.49V147.92L240.43,1.79l-19.25,3.02,22.91,146.13L198.82,10.11l-18.55,5.96,45.26,140.83L159,24.79l-17.41,8.76,66.53,132.12L121.94,45.45l-15.84,11.35,86.18,120.22L88.53,71.6l-13.89,13.67,103.76,105.42L59.56,102.61l-11.6,15.66,118.84,88.08L35.75,137.73l-9.04,17.26,131.05,68.62L17.67,176.12l-6.26,18.46,138.43,46.93c22.2-45.68,69.03-77.18,123.24-77.18Z"/>
  <path class="cls-1" d="M546.16,257.93h-128.91l126.49-21.89-3.32-19.2-143.97,24.92c2.52,5.21,4.7,10.62,6.55,16.18H143.17c1.85-5.56,4.03-10.96,6.55-16.18L5.75,216.84l-3.32,19.2,126.49,21.89H0v19.49H241.51l.68,.12h30.1l.02-.12h1.53l.02,.12h30.1l.68-.12h241.51v-19.49Z"/>
</svg>