<?xml version="1.0" encoding="UTF-8"?>
<svg id="Layer_1" data-name="Layer 1" xmlns="http://www.w3.org/2000/svg" viewBox="0 0 67.84 57.5">
  <defs>
    <style>
      .cls-1 {
        fill: none;
        stroke: #000;
        stroke-miterlimit: 10;
        stroke-width: 4px;
      }
    </style>
  </defs>
  <g>
    <path d="M14.57,34.89c-5.7-3.35-10.47-8.14-13.8-13.86l-.55-.95,.55-.95c3.33-5.72,8.1-10.51,13.8-13.86C20.45,1.83,27.18,0,34.03,0s13.58,1.83,19.45,5.28c5.7,3.35,10.47,8.14,13.8,13.86l.55,.95-.55,.95c-3.33,5.71-8.1,10.51-13.8,13.86-5.88,3.45-12.6,5.28-19.45,5.28s-13.58-1.83-19.45-5.28M51.57,8.53c-5.3-3.11-11.36-4.76-17.54-4.76s-12.24,1.65-17.54,4.76c-4.82,2.83-8.91,6.81-11.88,11.55,2.97,4.74,7.06,8.72,11.88,11.55,5.3,3.11,11.36,4.76,17.54,4.76s12.24-1.65,17.54-4.76c4.82-2.83,8.91-6.81,11.88-11.55-2.97-4.74-7.06-8.72-11.88-11.55"/>
    <path d="M49.02,12.7c0,8.28-6.71,14.99-14.99,14.99s-14.99-6.71-14.99-14.99S25.75,1.36,34.03,1.36s14.99,3.06,14.99,11.33"/>
  </g>
  <g>
    <line class="cls-1" x1="67.28" y1="49.49" x2="4.1" y2="49.49"/>
    <polyline class="cls-1" points="15.33 43.22 4.1 49.49 15.33 55.75"/>
  </g>
</svg>