<?xml version="1.0" encoding="UTF-8"?>
<svg id="Layer_1" data-name="Layer 1" xmlns="http://www.w3.org/2000/svg" viewBox="0 0 182.45 180.87">
  <defs>
    <style>
      .cls-1 {
        fill: #ff0;
      }
    </style>
  </defs>
  <path class="cls-1" d="M181.82,100.25c-1.83,15.36-7.62,30.09-16.74,42.59l-1.52,2.08-2.56-.29c-15.38-1.77-30.12-7.5-42.65-16.57-12.92-9.35-23.15-22.05-29.58-36.74-6.43-14.68-8.84-30.81-6.95-46.65,1.83-15.36,7.62-30.08,16.74-42.59l1.52-2.08,2.56,.3c15.37,1.77,30.12,7.5,42.65,16.57,12.92,9.35,23.15,22.05,29.58,36.73,6.43,14.68,8.84,30.82,6.95,46.65M90.6,45.71c-1.7,14.27,.47,28.82,6.27,42.06,5.8,13.24,15.02,24.7,26.67,33.12,10.6,7.67,22.97,12.7,35.91,14.61,7.37-10.81,12.06-23.3,13.61-36.3,1.7-14.27-.47-28.82-6.27-42.06-5.8-13.24-15.02-24.7-26.67-33.12-10.6-7.67-22.97-12.7-35.91-14.61-7.37,10.81-12.06,23.31-13.61,36.3"/>
  <path class="cls-1" d="M117.75,40.33c17.74-7.77,38.42,.31,46.2,18.05,7.77,17.74-.31,38.42-18.05,46.19-17.74,7.77-38.42-.31-46.2-18.05-7.77-17.74,.31-38.42,18.05-46.19"/>
  <path class="cls-1" d="M117.75,40.33c17.74-7.77,38.42,.31,46.2,18.05,7.77,17.74-.31,38.42-18.05,46.19-17.74,7.77-38.42-.31-46.2-18.05-7.77-17.74,.31-38.42,18.05-46.19"/>
  <path class="cls-1" d="M100.62,135.82c-1.83,15.36-7.62,30.09-16.74,42.59l-1.52,2.08-2.56-.3c-15.38-1.77-30.12-7.5-42.65-16.57-12.92-9.35-23.15-22.05-29.58-36.74C1.14,112.21-1.26,96.07,.62,80.24c1.83-15.36,7.62-30.08,16.74-42.59l1.52-2.08,2.56,.29c15.37,1.77,30.12,7.5,42.65,16.57,12.92,9.35,23.15,22.05,29.58,36.73,6.43,14.68,8.84,30.82,6.95,46.65M9.4,81.28c-1.7,14.27,.47,28.82,6.27,42.06,5.8,13.24,15.02,24.7,26.67,33.12,10.6,7.67,22.97,12.7,35.91,14.61,7.37-10.81,12.06-23.3,13.61-36.3,1.7-14.27-.47-28.82-6.27-42.06-5.8-13.24-15.02-24.7-26.67-33.12-10.6-7.67-22.97-12.7-35.91-14.61-7.37,10.81-12.06,23.31-13.61,36.3"/>
  <path class="cls-1" d="M36.55,75.91c17.74-7.77,38.42,.31,46.2,18.05,7.77,17.74-.31,38.42-18.05,46.19-17.74,7.77-38.42-.31-46.2-18.05-7.77-17.74,.31-38.42,18.05-46.19"/>
  <path class="cls-1" d="M36.55,75.91c17.74-7.77,38.42,.31,46.2,18.05,7.77,17.74-.31,38.42-18.05,46.19-17.74,7.77-38.42-.31-46.2-18.05-7.77-17.74,.31-38.42,18.05-46.19"/>
  <rect class="cls-1" x="86.7" y="7.74" width="8.83" height="162.46" transform="translate(-28.04 44.04) rotate(-23.66)"/>
  <path class="cls-1" d="M139.74,156.35c-3.88-8.85-14.2-12.89-23.05-9.01-8.85,3.88-12.89,14.2-9.01,23.05,3.88,8.85,14.2,12.89,23.05,9.01,8.85-3.88,12.88-14.2,9.01-23.05"/>
</svg>