<?xml version="1.0" encoding="UTF-8"?>
<svg id="Layer_1" data-name="Layer 1" xmlns="http://www.w3.org/2000/svg" viewBox="0 0 182.64 179.88">
  <defs>
    <style>
      .cls-1 {
        fill: #ff0;
      }
    </style>
  </defs>
  <path class="cls-1" d="M9.42,57.28c6.91-13.84,17.33-25.75,30.14-34.43l2.13-1.45,2.31,1.14c13.87,6.86,25.82,17.23,34.55,30,9,13.16,14.34,28.58,15.43,44.57,1.1,15.99-2.09,31.99-9.21,46.26-6.91,13.84-17.33,25.74-30.14,34.43l-2.13,1.45-2.31-1.14c-13.87-6.86-25.82-17.23-34.55-30C6.64,134.94,1.31,119.53,.21,103.54c-1.1-15.99,2.09-31.99,9.21-46.25m67.44,82.14c6.42-12.86,9.29-27.28,8.3-41.71-.99-14.42-5.8-28.32-13.91-40.18-7.39-10.8-17.33-19.71-28.86-25.88-10.58,7.68-19.22,17.86-25.07,29.57-6.42,12.86-9.29,27.28-8.31,41.71,.99,14.42,5.8,28.32,13.91,40.18,7.39,10.8,17.33,19.71,28.86,25.88,10.58-7.68,19.22-17.86,25.07-29.57"/>
  <path class="cls-1" d="M49.49,135.32c-19.32,1.32-36.06-13.27-37.38-32.59-1.32-19.32,13.27-36.06,32.59-37.39,19.32-1.32,36.06,13.27,37.38,32.59,1.32,19.32-13.27,36.06-32.59,37.38"/>
  <path class="cls-1" d="M49.49,135.32c-19.32,1.32-36.06-13.27-37.38-32.59-1.32-19.32,13.27-36.06,32.59-37.39,19.32-1.32,36.06,13.27,37.38,32.59,1.32,19.32-13.27,36.06-32.59,37.38"/>
  <path class="cls-1" d="M97.87,51.23c6.91-13.84,17.33-25.74,30.14-34.43l2.13-1.44,2.31,1.14c13.87,6.86,25.82,17.23,34.55,30,9,13.16,14.34,28.58,15.43,44.57,1.1,15.99-2.09,31.99-9.21,46.25-6.91,13.84-17.33,25.74-30.14,34.43l-2.13,1.44-2.31-1.14c-13.87-6.86-25.82-17.23-34.55-30-9-13.16-14.34-28.57-15.43-44.57-1.1-15.99,2.09-31.99,9.21-46.26m67.44,82.14c6.42-12.86,9.29-27.28,8.3-41.71-.99-14.42-5.8-28.32-13.91-40.18-7.39-10.8-17.33-19.71-28.86-25.88-10.59,7.68-19.22,17.86-25.07,29.57-6.42,12.86-9.29,27.28-8.31,41.71,.99,14.42,5.8,28.32,13.91,40.18,7.39,10.8,17.33,19.71,28.86,25.88,10.58-7.68,19.22-17.86,25.07-29.57"/>
  <path class="cls-1" d="M137.94,129.26c-19.32,1.32-36.06-13.27-37.38-32.59-1.32-19.32,13.27-36.06,32.59-37.39,19.32-1.32,36.06,13.27,37.38,32.59,1.32,19.32-13.27,36.06-32.59,37.38"/>
  <path class="cls-1" d="M137.94,129.26c-19.32,1.32-36.06-13.27-37.38-32.59-1.32-19.32,13.27-36.06,32.59-37.39,19.32-1.32,36.06,13.27,37.38,32.59,1.32,19.32-13.27,36.06-32.59,37.38"/>
  <rect class="cls-1" x="86.57" y="17.31" width="8.83" height="162.46" transform="translate(-6.52 6.45) rotate(-3.92)"/>
  <path class="cls-1" d="M67.98,18.7c.66,9.64,9.01,16.92,18.65,16.26,9.64-.66,16.92-9.01,16.26-18.65C102.24,6.66,93.89-.62,84.24,.04c-9.64,.66-16.92,9.01-16.26,18.65"/>
</svg>