<?xml version="1.0" encoding="UTF-8"?>
<svg id="Layer_1" data-name="Layer 1" xmlns="http://www.w3.org/2000/svg" viewBox="0 0 181.57 182.1">
  <defs>
    <style>
      .cls-1 {
        fill: #ff0;
      }
    </style>
  </defs>
  <path class="cls-1" d="M174.7,55.47c5.92,14.29,8.07,29.97,6.23,45.33l-.31,2.56-2.38,.99c-14.28,5.97-29.94,8.19-45.31,6.41-15.84-1.84-30.98-7.92-43.77-17.58-12.79-9.66-22.78-22.56-28.88-37.29-5.92-14.29-8.07-29.97-6.23-45.33l.31-2.56,2.37-.99C71.03,1.03,86.7-1.18,102.06,.6c15.84,1.84,30.97,7.92,43.77,17.58,12.79,9.66,22.78,22.56,28.88,37.29m-106.24-2.96c5.5,13.28,14.5,24.91,26.04,33.62,11.54,8.71,25.18,14.2,39.46,15.85,13,1.51,26.24-.16,38.47-4.82,1.14-13.03-.88-26.22-5.89-38.32-5.5-13.28-14.5-24.91-26.04-33.62-11.54-8.71-25.18-14.2-39.46-15.85-13-1.51-26.25,.16-38.47,4.82-1.14,13.03,.88,26.22,5.89,38.32"/>
  <path class="cls-1" d="M89.52,34.54c11.67-15.45,33.67-18.52,49.12-6.85,15.45,11.67,18.52,33.67,6.85,49.12-11.67,15.45-33.67,18.52-49.12,6.85-15.45-11.67-18.52-33.67-6.85-49.12"/>
  <path class="cls-1" d="M89.52,34.54c11.67-15.45,33.67-18.52,49.12-6.85,15.45,11.67,18.52,33.67,6.85,49.12-11.67,15.45-33.67,18.52-49.12,6.85-15.45-11.67-18.52-33.67-6.85-49.12"/>
  <path class="cls-1" d="M121.27,126.21c5.92,14.29,8.07,29.97,6.23,45.33l-.31,2.56-2.37,.99c-14.28,5.97-29.94,8.19-45.31,6.41-15.84-1.84-30.98-7.92-43.77-17.58-12.79-9.66-22.78-22.56-28.88-37.29C.95,112.34-1.2,96.66,.64,81.3l.31-2.56,2.37-.99c14.28-5.97,29.94-8.19,45.31-6.41,15.84,1.84,30.97,7.92,43.77,17.58,12.79,9.66,22.78,22.56,28.88,37.29m-106.24-2.96c5.5,13.28,14.5,24.91,26.04,33.62,11.54,8.71,25.18,14.2,39.46,15.85,13,1.51,26.24-.16,38.47-4.82,1.14-13.03-.88-26.22-5.89-38.32-5.5-13.28-14.5-24.91-26.04-33.62-11.54-8.71-25.18-14.2-39.46-15.85-13-1.51-26.25,.16-38.47,4.82-1.14,13.03,.88,26.22,5.89,38.32"/>
  <path class="cls-1" d="M36.08,105.28c11.67-15.45,33.67-18.52,49.12-6.85,15.45,11.67,18.52,33.67,6.85,49.12-11.67,15.45-33.67,18.52-49.12,6.85-15.45-11.67-18.52-33.67-6.85-49.12"/>
  <path class="cls-1" d="M36.08,105.28c11.67-15.45,33.67-18.52,49.12-6.85,15.45,11.67,18.52,33.67,6.85,49.12-11.67,15.45-33.67,18.52-49.12,6.85-15.45-11.67-18.52-33.67-6.85-49.12"/>
  <rect class="cls-1" x="85.65" y="8.75" width="8.83" height="162.46" transform="translate(-36.02 107.62) rotate(-52.94)"/>
  <path class="cls-1" d="M165.43,124.98c-7.71-5.82-18.69-4.3-24.51,3.42-5.83,7.71-4.3,18.69,3.42,24.51,7.71,5.83,18.69,4.3,24.51-3.42,5.82-7.71,4.3-18.69-3.42-24.51"/>
</svg>