<?xml version="1.0" encoding="UTF-8"?>
<svg id="Layer_1" data-name="Layer 1" xmlns="http://www.w3.org/2000/svg" viewBox="0 0 182.53 182.58">
  <defs>
    <style>
      .cls-1 {
        fill: #ff0;
      }
    </style>
  </defs>
  <path class="cls-1" d="M151.53,157.51c-11.69,10.13-25.88,17.12-41.04,20.23l-2.52,.52-1.69-1.94c-10.18-11.66-17.23-25.82-20.39-40.96-3.26-15.61-2.27-31.89,2.85-47.08,5.13-15.19,14.21-28.74,26.26-39.18,11.69-10.13,25.88-17.12,41.04-20.23l2.52-.52,1.69,1.94c10.18,11.66,17.23,25.82,20.39,40.96,3.26,15.61,2.27,31.89-2.85,47.08-5.13,15.19-14.21,28.74-26.26,39.18m-30.75-101.74c-10.86,9.41-19.05,21.63-23.67,35.32-4.62,13.7-5.51,28.38-2.57,42.45,2.68,12.81,8.44,24.85,16.72,34.97,12.72-3.03,24.6-9.12,34.5-17.69,10.86-9.41,19.05-21.63,23.67-35.33,4.62-13.7,5.51-28.38,2.57-42.45-2.68-12.81-8.44-24.85-16.72-34.98-12.72,3.03-24.6,9.12-34.5,17.69"/>
  <path class="cls-1" d="M144.48,70.07c18.35,6.19,28.21,26.09,22.01,44.44-6.19,18.35-26.09,28.21-44.44,22.01-18.35-6.19-28.21-26.09-22.01-44.44,6.19-18.35,26.09-28.21,44.44-22.01"/>
  <path class="cls-1" d="M144.48,70.07c18.35,6.19,28.21,26.09,22.01,44.44-6.19,18.35-26.09,28.21-44.44,22.01-18.35-6.19-28.21-26.09-22.01-44.44,6.19-18.35,26.09-28.21,44.44-22.01"/>
  <path class="cls-1" d="M67.53,129.16c-11.69,10.13-25.88,17.12-41.04,20.23l-2.52,.52-1.69-1.94c-10.18-11.66-17.23-25.82-20.39-40.96-3.26-15.61-2.27-31.89,2.85-47.08,5.13-15.19,14.21-28.74,26.26-39.18C42.69,10.62,56.88,3.62,72.04,.52l2.52-.52,1.69,1.94c10.18,11.66,17.23,25.82,20.39,40.96,3.26,15.61,2.27,31.89-2.85,47.08-5.13,15.19-14.21,28.74-26.26,39.18M36.78,27.42c-10.86,9.41-19.05,21.63-23.67,35.32-4.62,13.7-5.51,28.38-2.57,42.45,2.68,12.81,8.44,24.85,16.72,34.97,12.72-3.03,24.6-9.12,34.5-17.69,10.86-9.41,19.05-21.63,23.67-35.33,4.62-13.7,5.51-28.38,2.57-42.45-2.68-12.81-8.44-24.85-16.72-34.98-12.72,3.03-24.6,9.12-34.5,17.69"/>
  <path class="cls-1" d="M60.48,41.72c18.35,6.19,28.21,26.09,22.01,44.44-6.19,18.35-26.09,28.21-44.44,22.01-18.35-6.19-28.21-26.09-22.01-44.44,6.19-18.35,26.09-28.21,44.44-22.01"/>
  <path class="cls-1" d="M60.48,41.72c18.35,6.19,28.21,26.09,22.01,44.44-6.19,18.35-26.09,28.21-44.44,22.01-18.35-6.19-28.21-26.09-22.01-44.44,6.19-18.35,26.09-28.21,44.44-22.01"/>
  <rect class="cls-1" x="10.82" y="83.69" width="162.46" height="8.83" transform="translate(-20.87 147.15) rotate(-71.35)"/>
  <path class="cls-1" d="M82.65,170.67c3.09-9.16-1.83-19.09-10.98-22.18-9.16-3.09-19.09,1.83-22.18,10.98-3.09,9.16,1.83,19.09,10.98,22.18,9.16,3.09,19.09-1.83,22.18-10.98"/>
</svg>