<?xml version="1.0" encoding="UTF-8"?>
<svg id="Layer_1" data-name="Layer 1" xmlns="http://www.w3.org/2000/svg" viewBox="0 0 333.87 261.6">
  <path d="M222.02,22.34c-.1,.19-.26,.54-.47,.87-2.14,3.38-4.32,6.73-6.42,10.13-.65,1.05-1.28,1.3-2.31,.52-.8-.61-1.7-1.1-2.55-1.64-.6-.38-.72-.83-.32-1.45,2.34-3.65,4.67-7.31,6.99-10.97,.36-.57,.81-.85,1.44-.46,1.11,.69,2.19,1.4,3.28,2.11,.26,.17,.42,.39,.35,.89"/>
  <path d="M124.59,31.3c-.01,.93-4.03,3.36-4.68,2.92-.3-.2-.51-.57-.72-.89-2.13-3.33-4.21-6.69-6.39-9.98-.72-1.08-.65-1.69,.51-2.4,3.45-2.12,3.42-2.17,5.61,1.26,1.71,2.68,3.41,5.37,5.11,8.06,.23,.36,.41,.76,.56,1.03"/>
  <path d="M19.16,125.48C27.54,80.64,50.6,45.8,89.3,21.73,111.31,8.05,135.5,.91,161.4,.09c37.51-1.2,71.09,9.86,100.18,33.61,29.06,23.72,46.47,54.44,53.18,91.59,1.14-1.25,1.6-2.48,2.2-3.6,2.98-5.53,5.92-11.09,8.88-16.63,.9-1.68,1.01-1.71,2.64-.84,1.32,.7,2.65,1.4,3.97,2.1,1.7,.91,1.72,.95,.82,2.62-5.67,10.56-11.22,21.19-17.1,31.64-2.15,3.81-3.34,7.59-2.93,11.95,.19,1.98,.01,2.01-2,2.01-96.32,0-192.65,0-288.97,0-2.02,0-2.02,0-2.02-2,0-1.98-.04-3.97,.06-5.95,.04-.92-.43-1.57-.8-2.27-6.31-11.81-12.64-23.61-18.95-35.41-.86-1.6-.82-1.69,.76-2.54,1.32-.71,2.64-1.41,3.97-2.11,1.65-.88,1.7-.87,2.62,.84,3.38,6.3,6.76,12.61,10.14,18.91,.25,.46,.43,.97,1.11,1.47m287.02-.4c-2.47-14.34-6.96-27.69-13.54-40.31-12.61-24.19-30.67-43.26-54.15-57.14C191.05-.43,130.8,1.97,85.65,34.04c-31.38,22.29-50.38,52.66-57.87,90.68,1.14-.39,1.44-1.03,1.85-1.54,4.07-5.11,8.14-10.21,12.15-15.36,.84-1.08,1.46-1.13,2.45-.26,1.19,1.06,2.45,2.06,3.76,2.96,1.15,.8,1.16,1.46,.29,2.55-4.97,6.18-9.87,12.41-14.8,18.63-3.39,4.28-6.79,8.56-10.18,12.85-.35,.44-1.04,.89-.82,1.43,.24,.61,1.04,.31,1.58,.31,38.9,.01,77.79,.01,116.69,.01h1.8c.02-.13,.04-.25,.06-.38-.51-.2-1.01-.44-1.53-.61-18.88-6.22-33.5-17.9-44.32-34.49-.73-1.12-.67-1.91-.03-3,3.31-5.63,7.47-10.59,12.14-15.11,13.99-13.5,30.6-21.34,50.03-23.2,12.25-1.17,24.16,.27,35.69,4.43,17.91,6.46,32.13,17.69,42.66,33.58,.79,1.18,.83,2.05,.07,3.24-10.33,15.97-24.47,27.19-42.26,33.83-1.22,.45-2.54,.69-3.8,1.48,.98,.36,1.8,.22,2.6,.22,38.51,0,77.02,0,115.53,0,.34,0,.68,.01,1.02,0,.32-.02,.73,.1,.91-.27,.18-.36-.15-.62-.34-.88-.17-.23-.36-.46-.54-.68-8.32-10.5-16.62-21.01-24.98-31.48-.85-1.06-.78-1.65,.29-2.4,1.27-.89,2.44-1.91,3.65-2.86q1.54-1.21,2.73,.28c4.08,5.15,8.16,10.31,12.26,15.46,.41,.51,.71,1.15,1.8,1.61m-142.11,16.04c11.92-.04,20.66-1.48,29.07-4.66,14.04-5.31,25.41-14.17,34.46-26.08,.6-.79,.58-1.39-.01-2.17-7.94-10.59-17.94-18.61-29.98-24.08-.37-.17-.77-.59-1.19-.22-.38,.34-.09,.82-.03,1.24,.02,.19,.1,.37,.15,.56,1.41,5.58,1.32,11.16-.52,16.59-5.52,16.36-21.98,24.88-38.42,19.57-10.52-3.4-17.18-10.84-19.99-21.57-1.39-5.31-1.17-10.63,.39-15.9,.1-.32,.3-.68,.03-.96-.36-.38-.71,0-1.05,.11-.23,.07-.46,.17-.67,.27-11.93,5.49-21.82,13.49-29.68,24.01-.79,1.05-.73,1.75,.04,2.77,15.13,20.04,35.35,29.98,57.4,30.53"/>
  <path d="M147.6,67.43c-.02,.88-3.9,3.43-4.52,3.09-.32-.17-.55-.53-.76-.85-2.44-3.82-4.86-7.66-7.32-11.47-.59-.91-.39-1.41,.48-1.99,3.55-2.34,3.54-2.36,5.81,1.19,1.93,3.01,3.84,6.03,5.75,9.04,.23,.36,.43,.74,.57,.99"/>
  <path d="M211.27,39.23c-.12,.22-.25,.53-.43,.81-2.46,3.87-4.94,7.72-7.36,11.61-.58,.93-1.11,.98-1.99,.44-3.67-2.24-3.68-2.22-1.37-5.84,1.95-3.05,3.92-6.09,5.81-9.17,.6-.97,1.16-1.12,2.08-.45,.81,.6,1.7,1.11,2.55,1.65,.33,.21,.65,.42,.71,.95"/>
  <path d="M190.72,70.59c-1.27-.81-2.79-1.47-3.94-2.67-.32-.34,.03-.74,.23-1.05,2.5-3.96,5.02-7.91,7.53-11.87,.44-.7,.9-.85,1.67-.44,4.06,2.13,4.07,2.11,1.65,5.9-1.92,3.01-3.83,6.04-5.76,9.04-.3,.46-.5,1.09-1.38,1.09"/>
  <path d="M127.3,36.14c.53-.02,.74,.41,.96,.76,2.5,3.91,4.97,7.84,7.48,11.74,.55,.85,.34,1.35-.46,1.89-3.6,2.42-3.59,2.43-5.9-1.21-1.87-2.94-3.75-5.87-5.61-8.81-1-1.58-.97-1.66,.65-2.68,.86-.54,1.73-1.07,2.59-1.6,.08-.05,.18-.06,.28-.1"/>
  <g>
    <path d="M168.11,184.9c0-7.21,.03-14.42-.03-21.63-.01-1.42,.35-2.02,1.86-1.93,1.98,.12,3.97,.08,5.95,0,1.22-.05,1.58,.42,1.57,1.6-.05,5.08,.02,10.16-.05,15.24-.02,1.38,.37,1.84,1.79,1.82,4.5-.08,9-.07,13.5,0,1.3,.02,1.65-.43,1.64-1.68-.05-5.08,.02-10.16-.05-15.24-.02-1.35,.45-1.8,1.76-1.74,1.93,.08,3.87,.1,5.8,0,1.4-.07,1.83,.42,1.82,1.81-.05,9.77-.02,19.55-.02,29.32,0,4.84-.03,9.68,.02,14.51,.01,1.16-.32,1.67-1.56,1.62-2.08-.08-4.16-.07-6.24,0-1.19,.04-1.6-.39-1.59-1.6,.05-5.85-.02-11.71,.05-17.56,.02-1.47-.41-1.91-1.89-1.88-4.4,.09-8.81,.1-13.21,0-1.53-.04-1.86,.52-1.84,1.92,.07,5.8-.01,11.61,.06,17.42,.02,1.38-.45,1.77-1.75,1.71-1.93-.08-3.87-.09-5.8,0-1.37,.06-1.85-.37-1.84-1.8,.06-7.3,.03-14.61,.03-21.91"/>
    <path d="M247.59,190.7c-.46,.45-.27,1.02-.27,1.52-.02,4.89-.05,9.77,.02,14.66,.02,1.35-.43,1.8-1.74,1.75-1.98-.08-3.97-.08-5.95,0-1.33,.05-1.74-.42-1.73-1.76,.05-10.4,.03-20.81,.03-31.21,0-4.16,.04-8.32-.02-12.48-.02-1.28,.32-1.82,1.71-1.79,4.06,.08,8.13,.01,12.2,.04,2.34,.01,4.63,.46,6.8,1.33,4.51,1.81,6.9,5.3,7.58,10.01,.52,3.58,.11,7.05-1.66,10.27-1.37,2.51-3.33,4.41-6.11,5.26-1.37,.42-1.33,.95-.61,2.02,3.76,5.51,7.46,11.07,11.16,16.62,.28,.41,.87,.83,.55,1.38-.26,.45-.89,.26-1.36,.27-2.66,.01-5.32-.03-7.99,.03-1.04,.02-1.67-.33-2.21-1.25-3.01-5.08-6.07-10.12-9.14-15.16-.33-.55-.5-1.28-1.27-1.5m2.7-7.74c2-.1,4.55-.6,5.94-3.27,2.7-5.17-.25-10.34-6.03-10.65-.43-.02-.87,0-1.3-.05-1.18-.14-1.64,.32-1.62,1.54,.06,3.43,.02,6.85,.02,10.28,0,2.21,.02,2.23,2.98,2.15"/>
    <path d="M83.46,185.04c0-7.26,.04-14.51-.03-21.77-.01-1.49,.48-1.92,1.93-1.88,3.92,.08,7.84,.03,11.76,.03,2.4,0,4.73,.43,6.95,1.31,4.46,1.76,6.96,5.15,7.63,9.8,.69,4.83-.04,9.37-3.53,13.11-1.17,1.26-2.58,2.21-4.24,2.68-1.24,.35-1.34,.86-.62,1.91,3.75,5.52,7.45,11.07,11.15,16.62,.28,.43,.87,.87,.64,1.37-.28,.64-1.03,.35-1.57,.35-2.56,.03-5.13-.03-7.69,.03-1.1,.03-1.77-.34-2.34-1.31-2.98-5.03-6.03-10.03-9.06-15.03-.23-.37-.44-.75-.68-1.12-.16-.25-.37-.54-.68-.44-.32,.1-.27,.48-.27,.76,0,2.42,0,4.84,0,7.26,0,2.81-.03,5.61,.01,8.42,.02,1.06-.37,1.47-1.43,1.45-2.13-.05-4.26-.06-6.39,0-1.24,.04-1.56-.48-1.55-1.64,.04-7.31,.02-14.61,.02-21.92m9.34-9.13h0v3.77c0,3.56,0,3.58,3.62,3.21,2.21-.23,4.15-1.04,5.29-3.09,2.77-4.99-.08-10.32-5.73-10.75-.63-.05-1.26-.03-1.88-.07-.92-.06-1.32,.33-1.3,1.27,.04,1.88,.01,3.77,.01,5.66"/>
    <path d="M20.14,184.93c0-7.2,0-14.41,0-21.61,0-1.91,.05-1.96,1.95-1.95,4.16,0,8.32,0,12.47,.07,2.48,.04,4.89,.54,7.19,1.52,3.76,1.6,6.04,4.48,6.89,8.4,.86,3.99,.82,8-.72,11.84-2.19,5.49-6.77,7.36-12.2,7.79-1.54,.12-3.1,.1-4.64,.02-1.21-.06-1.61,.4-1.6,1.59,.04,4.69,.02,9.38,.01,14.07,0,1.83-.07,1.9-1.85,1.91-1.93,0-3.87-.07-5.8,.02-1.36,.07-1.74-.46-1.74-1.77,.05-7.3,.02-14.6,.02-21.9m9.37-8.7c0,1.88,0,3.76,0,5.65,0,.73,.1,1.36,1.05,1.4,1.8,.07,3.59-.02,5.31-.54,1.45-.44,2.53-1.38,3.1-2.83,.81-2.05,.81-4.17,.39-6.27-.41-2.06-1.69-3.46-3.75-4-1.54-.4-3.13-.53-4.73-.57-1.01-.03-1.39,.41-1.38,1.37,.02,1.93,0,3.86,0,5.79"/>
    <path d="M134.2,185.08c0-7.31,.03-14.61-.03-21.92-.01-1.39,.42-1.85,1.82-1.82,4.21,.09,8.42,.03,12.63,.09,2.39,.04,4.71,.5,6.93,1.41,4.83,1.98,6.98,5.85,7.55,10.82,.38,3.33,.1,6.6-1.18,9.69-2.2,5.33-6.7,7.19-12.03,7.63-1.59,.13-3.19,.1-4.79,.03-1.21-.05-1.6,.39-1.58,1.59,.05,4.69-.03,9.39,.05,14.08,.02,1.43-.34,2.02-1.86,1.93-1.98-.11-3.97-.08-5.95,0-1.21,.04-1.59-.4-1.58-1.6,.04-7.3,.02-14.61,.02-21.92m9.35-8.98c0,1.93,.03,3.87-.01,5.8-.02,1,.39,1.37,1.37,1.38,1.56,.02,3.1-.08,4.61-.45,2.13-.52,3.43-1.91,3.87-4.05,.34-1.67,.37-3.36,.05-5.05-.41-2.17-1.7-3.56-3.8-4.11-1.54-.41-3.14-.54-4.74-.56-1.02-.01-1.37,.41-1.35,1.39,.04,1.88,.01,3.77,.01,5.66"/>
    <path d="M54.03,185c0-7.21,0-14.42,0-21.63,0-1.93,.03-1.95,1.94-1.95,6.87,0,13.74,0,20.62,0,1.98,0,1.98,.01,1.99,2.05,0,1.4-.09,2.81,.02,4.21,.12,1.53-.54,1.89-1.95,1.86-3.87-.08-7.74,.02-11.61-.05-1.27-.02-1.71,.38-1.66,1.66,.08,2.37,.06,4.74,0,7.11-.02,1.14,.43,1.53,1.55,1.52,3.77-.04,7.55,.02,11.33-.03,1.29-.02,1.86,.39,1.77,1.76-.1,1.59-.08,3.19,0,4.79,.05,1.21-.46,1.63-1.62,1.61-3.73-.04-7.45,.03-11.18-.04-1.37-.03-1.89,.39-1.85,1.81,.09,3.09,.06,6.19,0,9.29-.02,1.15,.41,1.52,1.53,1.51,3.97-.04,7.94,.02,11.91-.03,1.3-.02,1.85,.42,1.78,1.77-.09,1.69-.05,3.39-.01,5.08,.02,.95-.39,1.29-1.3,1.29-7.36-.01-14.71-.02-22.07,0-1.29,0-1.19-.84-1.19-1.68,0-7.31,0-14.61,0-21.92"/>
    <path d="M208.54,184.93c0-7.21,.03-14.42-.03-21.62-.01-1.42,.39-1.94,1.89-1.93,6.92,.07,13.84,.03,20.76,.03,1.81,0,1.88,.07,1.89,1.87,0,1.55-.05,3.1,.02,4.64,.05,1.21-.43,1.61-1.62,1.6-3.97-.05-7.94,.03-11.9-.04-1.31-.02-1.82,.37-1.77,1.73,.09,2.27,.08,4.55,0,6.82-.04,1.35,.5,1.76,1.8,1.74,3.72-.06,7.45,.03,11.18-.05,1.41-.03,1.89,.48,1.8,1.86-.1,1.59-.07,3.19,0,4.79,.05,1.14-.42,1.55-1.53,1.54-3.82-.03-7.64,.03-11.47-.03-1.32-.02-1.81,.42-1.77,1.76,.07,3.05,.07,6.1,0,9.14-.03,1.25,.4,1.71,1.67,1.69,3.92-.06,7.84,.02,11.76-.04,1.37-.02,1.95,.42,1.86,1.84-.1,1.54-.11,3.1,0,4.64,.1,1.41-.54,1.73-1.79,1.71-4.69-.05-9.39-.03-14.08-.04-2.32,0-4.65-.07-6.97,.02-1.36,.05-1.75-.46-1.74-1.77,.05-7.3,.02-14.61,.02-21.91h0Z"/>
    <path d="M288.71,184.93c0-7.21,.03-14.42-.03-21.62-.01-1.42,.39-1.94,1.89-1.93,6.92,.07,13.84,.03,20.76,.03,1.81,0,1.88,.07,1.89,1.87,0,1.55-.05,3.1,.02,4.64,.05,1.21-.43,1.61-1.62,1.6-3.97-.05-7.94,.03-11.9-.04-1.31-.02-1.82,.37-1.77,1.73,.09,2.27,.08,4.55,0,6.82-.04,1.35,.5,1.76,1.8,1.74,3.72-.06,7.45,.03,11.18-.05,1.41-.03,1.89,.48,1.8,1.86-.1,1.59-.07,3.19,0,4.79,.05,1.14-.42,1.55-1.53,1.54-3.82-.03-7.64,.03-11.47-.03-1.32-.02-1.81,.42-1.77,1.76,.07,3.05,.07,6.1,0,9.14-.03,1.25,.4,1.71,1.67,1.69,3.92-.06,7.84,.02,11.76-.04,1.37-.02,1.95,.42,1.86,1.84-.1,1.54-.11,3.1,0,4.64,.1,1.41-.54,1.73-1.79,1.71-4.69-.05-9.39-.03-14.08-.04-2.32,0-4.65-.07-6.97,.02-1.36,.05-1.75-.46-1.74-1.77,.05-7.3,.02-14.61,.02-21.91h0Z"/>
    <path d="M119.99,185.09c0-7.25,0-14.51,0-21.77,0-1.92,.04-1.95,1.95-1.96,1.84,0,3.68,0,5.52,0,1.8,0,1.88,.08,1.88,1.89,0,10.93,0,21.86,0,32.79,0,3.63-.04,7.26,.02,10.88,.02,1.28-.45,1.71-1.7,1.67-1.98-.07-3.97-.09-5.95,0-1.34,.06-1.76-.42-1.75-1.75,.05-7.25,.03-14.51,.03-21.77"/>
    <path d="M274.49,185.09c0-7.25,0-14.51,0-21.77,0-1.92,.04-1.95,1.95-1.96,1.84,0,3.68,0,5.52,0,1.8,0,1.88,.08,1.88,1.89,0,10.93,0,21.86,0,32.79,0,3.63-.04,7.26,.02,10.88,.02,1.28-.45,1.71-1.7,1.67-1.98-.07-3.97-.09-5.95,0-1.34,.06-1.76-.42-1.75-1.75,.05-7.25,.03-14.51,.03-21.77"/>
  </g>
  <g>
    <path d="M168.11,237.86c0-7.21,.03-14.42-.03-21.63-.01-1.42,.35-2.02,1.86-1.93,1.98,.12,3.97,.08,5.95,0,1.22-.05,1.58,.42,1.57,1.6-.05,5.08,.02,10.16-.05,15.24-.02,1.38,.37,1.84,1.79,1.82,4.5-.08,9-.07,13.5,0,1.3,.02,1.65-.43,1.64-1.68-.05-5.08,.02-10.16-.05-15.24-.02-1.35,.45-1.8,1.76-1.74,1.93,.08,3.87,.1,5.8,0,1.4-.07,1.83,.42,1.82,1.81-.05,9.77-.02,19.55-.02,29.32,0,4.84-.03,9.68,.02,14.51,.01,1.16-.32,1.67-1.56,1.62-2.08-.08-4.16-.07-6.24,0-1.19,.04-1.6-.39-1.59-1.6,.05-5.85-.02-11.71,.05-17.56,.02-1.47-.41-1.91-1.89-1.88-4.4,.09-8.81,.1-13.21,0-1.53-.04-1.86,.52-1.84,1.92,.07,5.8-.01,11.61,.06,17.42,.02,1.38-.45,1.77-1.75,1.71-1.93-.08-3.87-.09-5.8,0-1.37,.06-1.85-.37-1.84-1.8,.06-7.3,.03-14.61,.03-21.91"/>
    <path d="M247.59,243.67c-.46,.45-.27,1.02-.27,1.52-.02,4.89-.05,9.77,.02,14.66,.02,1.35-.43,1.8-1.74,1.75-1.98-.08-3.97-.08-5.95,0-1.33,.05-1.74-.42-1.73-1.76,.05-10.4,.03-20.81,.03-31.21,0-4.16,.04-8.32-.02-12.48-.02-1.28,.32-1.82,1.71-1.79,4.06,.08,8.13,.01,12.2,.04,2.34,.01,4.63,.46,6.8,1.33,4.51,1.81,6.9,5.3,7.58,10.01,.52,3.58,.11,7.05-1.66,10.27-1.37,2.51-3.33,4.41-6.11,5.26-1.37,.42-1.33,.95-.61,2.02,3.76,5.51,7.46,11.07,11.16,16.62,.28,.41,.87,.83,.55,1.38-.26,.45-.89,.26-1.36,.27-2.66,.01-5.32-.03-7.99,.03-1.04,.02-1.67-.33-2.21-1.25-3.01-5.08-6.07-10.12-9.14-15.16-.33-.55-.5-1.28-1.27-1.5m2.7-7.74c2-.1,4.55-.6,5.94-3.27,2.7-5.17-.25-10.34-6.03-10.65-.43-.02-.87,0-1.3-.05-1.18-.14-1.64,.32-1.62,1.54,.06,3.43,.02,6.85,.02,10.28,0,2.21,.02,2.23,2.98,2.15"/>
    <path d="M83.46,238.01c0-7.26,.04-14.51-.03-21.77-.01-1.49,.48-1.92,1.93-1.88,3.92,.08,7.84,.03,11.76,.03,2.4,0,4.73,.43,6.95,1.31,4.46,1.76,6.96,5.15,7.63,9.8,.69,4.83-.04,9.37-3.53,13.11-1.17,1.26-2.58,2.21-4.24,2.68-1.24,.35-1.34,.86-.62,1.91,3.75,5.52,7.45,11.07,11.15,16.62,.28,.43,.87,.87,.64,1.37-.28,.64-1.03,.35-1.57,.35-2.56,.03-5.13-.03-7.69,.03-1.1,.03-1.77-.34-2.34-1.31-2.98-5.03-6.03-10.03-9.06-15.03-.23-.37-.44-.75-.68-1.12-.16-.25-.37-.54-.68-.44-.32,.1-.27,.48-.27,.76,0,2.42,0,4.84,0,7.26,0,2.81-.03,5.61,.01,8.42,.02,1.06-.37,1.47-1.43,1.45-2.13-.05-4.26-.06-6.39,0-1.24,.04-1.56-.48-1.55-1.64,.04-7.31,.02-14.61,.02-21.92m9.34-9.13h0v3.77c0,3.56,0,3.58,3.62,3.21,2.21-.23,4.15-1.04,5.29-3.09,2.77-4.99-.08-10.32-5.73-10.75-.63-.05-1.26-.03-1.88-.07-.92-.06-1.32,.33-1.3,1.27,.04,1.88,.01,3.77,.01,5.66"/>
    <path d="M20.14,237.9c0-7.2,0-14.41,0-21.61,0-1.91,.05-1.96,1.95-1.95,4.16,0,8.32,0,12.47,.07,2.48,.04,4.89,.54,7.19,1.52,3.76,1.6,6.04,4.48,6.89,8.4,.86,3.99,.82,8-.72,11.84-2.19,5.49-6.77,7.36-12.2,7.79-1.54,.12-3.1,.1-4.64,.02-1.21-.06-1.61,.4-1.6,1.59,.04,4.69,.02,9.38,.01,14.07,0,1.83-.07,1.9-1.85,1.91-1.93,0-3.87-.07-5.8,.02-1.36,.07-1.74-.46-1.74-1.77,.05-7.3,.02-14.6,.02-21.9m9.37-8.7c0,1.88,0,3.76,0,5.65,0,.73,.1,1.36,1.05,1.4,1.8,.07,3.59-.02,5.31-.54,1.45-.44,2.53-1.38,3.1-2.83,.81-2.05,.81-4.17,.39-6.27-.41-2.06-1.69-3.46-3.75-4-1.54-.4-3.13-.53-4.73-.57-1.01-.03-1.39,.41-1.38,1.37,.02,1.93,0,3.86,0,5.79"/>
    <path d="M134.2,238.05c0-7.31,.03-14.61-.03-21.92-.01-1.39,.42-1.85,1.82-1.82,4.21,.09,8.42,.03,12.63,.09,2.39,.04,4.71,.5,6.93,1.41,4.83,1.98,6.98,5.85,7.55,10.82,.38,3.33,.1,6.6-1.18,9.69-2.2,5.33-6.7,7.19-12.03,7.63-1.59,.13-3.19,.1-4.79,.03-1.21-.05-1.6,.39-1.58,1.59,.05,4.69-.03,9.39,.05,14.08,.02,1.43-.34,2.02-1.86,1.93-1.98-.11-3.97-.08-5.95,0-1.21,.04-1.59-.4-1.58-1.6,.04-7.3,.02-14.61,.02-21.92m9.35-8.98c0,1.93,.03,3.87-.01,5.8-.02,1,.39,1.37,1.37,1.38,1.56,.02,3.1-.08,4.61-.45,2.13-.52,3.43-1.91,3.87-4.05,.34-1.67,.37-3.36,.05-5.05-.41-2.17-1.7-3.56-3.8-4.11-1.54-.41-3.14-.54-4.74-.56-1.02-.01-1.37,.41-1.35,1.39,.04,1.88,.01,3.77,.01,5.66"/>
    <path d="M54.03,237.96c0-7.21,0-14.42,0-21.63,0-1.93,.03-1.95,1.94-1.95,6.87,0,13.74,0,20.62,0,1.98,0,1.98,.01,1.99,2.05,0,1.4-.09,2.81,.02,4.21,.12,1.53-.54,1.89-1.95,1.86-3.87-.08-7.74,.02-11.61-.05-1.27-.02-1.71,.38-1.66,1.66,.08,2.37,.06,4.74,0,7.11-.02,1.14,.43,1.53,1.55,1.52,3.77-.04,7.55,.02,11.33-.03,1.29-.02,1.86,.39,1.77,1.76-.1,1.59-.08,3.19,0,4.79,.05,1.21-.46,1.63-1.62,1.61-3.73-.04-7.45,.03-11.18-.04-1.37-.03-1.89,.39-1.85,1.81,.09,3.09,.06,6.19,0,9.29-.02,1.15,.41,1.52,1.53,1.51,3.97-.04,7.94,.02,11.91-.03,1.3-.02,1.85,.42,1.78,1.77-.09,1.69-.05,3.39-.01,5.08,.02,.95-.39,1.29-1.3,1.29-7.36-.01-14.71-.02-22.07,0-1.29,0-1.19-.84-1.19-1.68,0-7.31,0-14.61,0-21.92"/>
    <path d="M208.54,237.9c0-7.21,.03-14.42-.03-21.62-.01-1.42,.39-1.94,1.89-1.93,6.92,.07,13.84,.03,20.76,.03,1.81,0,1.88,.07,1.89,1.87,0,1.55-.05,3.1,.02,4.64,.05,1.21-.43,1.61-1.62,1.6-3.97-.05-7.94,.03-11.9-.04-1.31-.02-1.82,.37-1.77,1.73,.09,2.27,.08,4.55,0,6.82-.04,1.35,.5,1.76,1.8,1.74,3.72-.06,7.45,.03,11.18-.05,1.41-.03,1.89,.48,1.8,1.86-.1,1.59-.07,3.19,0,4.79,.05,1.14-.42,1.55-1.53,1.54-3.82-.03-7.64,.03-11.47-.03-1.32-.02-1.81,.42-1.77,1.76,.07,3.05,.07,6.1,0,9.14-.03,1.25,.4,1.71,1.67,1.69,3.92-.06,7.84,.02,11.76-.04,1.37-.02,1.95,.42,1.86,1.84-.1,1.54-.11,3.1,0,4.64,.1,1.41-.54,1.73-1.79,1.71-4.69-.05-9.39-.03-14.08-.04-2.32,0-4.65-.07-6.97,.02-1.36,.05-1.75-.46-1.74-1.77,.05-7.3,.02-14.61,.02-21.91h0Z"/>
    <path d="M288.71,237.9c0-7.21,.03-14.42-.03-21.62-.01-1.42,.39-1.94,1.89-1.93,6.92,.07,13.84,.03,20.76,.03,1.81,0,1.88,.07,1.89,1.87,0,1.55-.05,3.1,.02,4.64,.05,1.21-.43,1.61-1.62,1.6-3.97-.05-7.94,.03-11.9-.04-1.31-.02-1.82,.37-1.77,1.73,.09,2.27,.08,4.55,0,6.82-.04,1.35,.5,1.76,1.8,1.74,3.72-.06,7.45,.03,11.18-.05,1.41-.03,1.89,.48,1.8,1.86-.1,1.59-.07,3.19,0,4.79,.05,1.14-.42,1.55-1.53,1.54-3.82-.03-7.64,.03-11.47-.03-1.32-.02-1.81,.42-1.77,1.76,.07,3.05,.07,6.1,0,9.14-.03,1.25,.4,1.71,1.67,1.69,3.92-.06,7.84,.02,11.76-.04,1.37-.02,1.95,.42,1.86,1.84-.1,1.54-.11,3.1,0,4.64,.1,1.41-.54,1.73-1.79,1.71-4.69-.05-9.39-.03-14.08-.04-2.32,0-4.65-.07-6.97,.02-1.36,.05-1.75-.46-1.74-1.77,.05-7.3,.02-14.61,.02-21.91h0Z"/>
    <path d="M119.99,238.05c0-7.25,0-14.51,0-21.77,0-1.92,.04-1.95,1.95-1.96,1.84,0,3.68,0,5.52,0,1.8,0,1.88,.08,1.88,1.89,0,10.93,0,21.86,0,32.79,0,3.63-.04,7.26,.02,10.88,.02,1.28-.45,1.71-1.7,1.67-1.98-.07-3.97-.09-5.95,0-1.34,.06-1.76-.42-1.75-1.75,.05-7.25,.03-14.51,.03-21.77"/>
    <path d="M274.49,238.05c0-7.25,0-14.51,0-21.77,0-1.92,.04-1.95,1.95-1.96,1.84,0,3.68,0,5.52,0,1.8,0,1.88,.08,1.88,1.89,0,10.93,0,21.86,0,32.79,0,3.63-.04,7.26,.02,10.88,.02,1.28-.45,1.71-1.7,1.67-1.98-.07-3.97-.09-5.95,0-1.34,.06-1.76-.42-1.75-1.75,.05-7.25,.03-14.51,.03-21.77"/>
  </g>
</svg>