<?xml version="1.0" encoding="UTF-8"?>
<svg id="Layer_1" data-name="Layer 1" xmlns="http://www.w3.org/2000/svg" viewBox="0 0 182.54 182.42">
  <defs>
    <style>
      .cls-1 {
        fill: #ff0;
      }
    </style>
  </defs>
  <path class="cls-1" d="M2.14,74.46c3.36-15.1,10.6-29.17,20.94-40.69l1.72-1.92,2.51,.55c15.12,3.31,29.22,10.49,40.77,20.77,11.91,10.6,20.81,24.27,25.73,39.52,4.92,15.26,5.69,31.55,2.22,47.11-3.36,15.1-10.6,29.17-20.94,40.69l-1.72,1.92-2.51-.55c-15.12-3.31-29.22-10.49-40.77-20.77-11.91-10.6-20.81-24.27-25.73-39.52-4.92-15.26-5.69-31.55-2.22-47.11m85.28,63.43c3.13-14.03,2.43-28.72-2.01-42.48-4.44-13.76-12.46-26.08-23.2-35.64-9.78-8.7-21.58-14.94-34.26-18.15-8.42,10.01-14.34,21.97-17.19,34.75-3.13,14.03-2.43,28.72,2.01,42.48,4.44,13.76,12.46,26.08,23.2,35.64,9.78,8.7,21.57,14.94,34.26,18.15,8.42-10.01,14.34-21.97,17.19-34.75"/>
  <path class="cls-1" d="M59.86,140.51c-18.43,5.95-38.2-4.17-44.15-22.6-5.95-18.43,4.17-38.2,22.6-44.15,18.43-5.95,38.2,4.17,44.15,22.6,5.95,18.43-4.17,38.2-22.6,44.15"/>
  <path class="cls-1" d="M59.86,140.51c-18.43,5.95-38.2-4.17-44.15-22.6-5.95-18.43,4.17-38.2,22.6-44.15,18.43-5.95,38.2,4.17,44.15,22.6,5.95,18.43-4.17,38.2-22.6,44.15"/>
  <path class="cls-1" d="M86.51,47.23c3.36-15.1,10.6-29.17,20.94-40.69l1.72-1.92,2.51,.55c15.12,3.31,29.22,10.49,40.77,20.77,11.91,10.6,20.81,24.27,25.74,39.52,4.92,15.26,5.69,31.55,2.22,47.11-3.36,15.1-10.6,29.17-20.94,40.69l-1.72,1.92-2.51-.55c-15.12-3.31-29.22-10.49-40.77-20.78-11.91-10.6-20.81-24.27-25.73-39.52-4.92-15.26-5.69-31.55-2.22-47.11m85.28,63.43c3.13-14.03,2.43-28.72-2.01-42.48-4.44-13.76-12.46-26.08-23.2-35.64-9.78-8.7-21.58-14.94-34.26-18.15-8.42,10.01-14.34,21.97-17.19,34.75-3.13,14.03-2.43,28.72,2.01,42.48,4.44,13.76,12.46,26.08,23.2,35.64,9.78,8.7,21.57,14.94,34.26,18.15,8.42-10.01,14.34-21.97,17.19-34.75"/>
  <path class="cls-1" d="M144.23,113.29c-18.43,5.95-38.2-4.17-44.15-22.6-5.95-18.43,4.17-38.2,22.6-44.15,18.43-5.95,38.2,4.17,44.15,22.6,5.95,18.43-4.17,38.2-22.6,44.15"/>
  <path class="cls-1" d="M144.23,113.29c-18.43,5.95-38.2-4.17-44.15-22.6-5.95-18.43,4.17-38.2,22.6-44.15,18.43-5.95,38.2,4.17,44.15,22.6,5.95,18.43-4.17,38.2-22.6,44.15"/>
  <rect class="cls-1" x="86.83" y="13.58" width="8.83" height="162.46" transform="translate(-24.71 32.6) rotate(-17.89)"/>
  <path class="cls-1" d="M49.64,22.88c2.97,9.2,12.83,14.25,22.03,11.28,9.2-2.97,14.25-12.83,11.28-22.03-2.97-9.2-12.83-14.25-22.03-11.28-9.2,2.97-14.25,12.83-11.28,22.03"/>
</svg>