<?xml version="1.0" encoding="UTF-8"?>
<svg id="Layer_1" data-name="Layer 1" xmlns="http://www.w3.org/2000/svg" viewBox="0 0 546.16 277.54">
  <defs>
    <style>
      .cls-1 {
        fill: #ff0;
      }
    </style>
  </defs>
  <path class="cls-1" d="M240.3,168.29c-2.34,5.33-3.64,11.22-3.64,17.42,0,24,19.46,43.46,43.46,43.46s43.46-19.46,43.46-43.46c0-4.33-.64-8.52-1.82-12.46,32.69,12.44,59.38,37.03,74.55,68.26l138.43-46.93-6.26-18.46-140.09,47.49,131.04-68.62-9.04-17.26-131.04,68.62,118.84-88.08-11.6-15.66-118.84,88.08,103.76-105.42-13.89-13.67-103.76,105.42,86.18-120.22-15.84-11.35-86.18,120.22L404.56,33.55l-17.41-8.76-66.53,132.12L365.89,16.08l-18.55-5.96-44.52,138.52c-.11-.07-.23-.14-.35-.21L324.98,4.8l-19.25-3.02-22.04,140.62c-.29-.02-.58-.05-.86-.07V0h-19.49V145.61c-.11,.05-.23,.1-.34,.15L240.43,1.79l-19.25,3.02,22.91,146.13L198.82,10.11l-18.55,5.96,45.26,140.83L159,24.79l-17.41,8.76,66.53,132.12L121.94,45.45l-15.84,11.35,86.18,120.22L88.53,71.6l-13.89,13.67,103.76,105.42L59.56,102.61l-11.6,15.66,118.84,88.08L35.75,137.73l-9.04,17.26,131.04,68.62L17.67,176.12l-6.26,18.46,138.43,46.93c17.57-36.16,50.58-63.41,90.46-73.21Z"/>
  <path class="cls-1" d="M439.69,257.93h-22.44l126.49-21.89-3.32-19.2-143.97,24.92c2.52,5.22,4.72,10.62,6.58,16.17H143.14c1.85-5.56,4.05-10.96,6.58-16.17L5.75,216.84l-3.32,19.2,126.49,21.89H0v19.49H241.51l.68,.12h30.1l.02-.12h1.53l.02,.12h30.1l.68-.12h241.51v-19.49h-106.47Z"/>
</svg>