<?xml version="1.0" encoding="UTF-8"?>
<svg id="Layer_1" data-name="Layer 1" xmlns="http://www.w3.org/2000/svg" viewBox="0 0 1139.51 1116.96">
  <defs>
    <style>
      .cls-1 {
        fill: #ff0;
      }
    </style>
  </defs>
  <path class="cls-1" d="M1139.51,538.15h-268.96l263.91-45.67-6.93-40.06-304.1,52.63,292.28-99.09-13.05-38.51-292.28,99.09,273.41-143.16-18.86-36.02-273.41,143.16,247.94-183.77-24.21-32.66-247.94,183.77,216.49-219.96-28.98-28.52-216.49,219.96,179.82-250.83-33.04-23.69-179.81,250.83L844.07,70l-36.31-18.29-138.8,275.65L763.4,33.54l-38.71-12.44-94.44,293.82L678.05,10.02l-40.17-6.3-47.79,304.9V0h-40.66V308.62L501.63,3.72l-40.17,6.3,47.8,304.9L414.82,21.1l-38.71,12.44,94.44,293.82L331.75,51.71l-36.31,18.29,138.8,275.65L254.42,94.82l-33.04,23.69,179.82,250.83L184.7,149.38l-28.98,28.52,216.49,219.96L124.27,214.08l-24.21,32.66,247.94,183.77L74.59,287.36l-18.86,36.02,273.41,143.16L36.86,367.45l-13.05,38.51,292.28,99.09L11.99,452.42l-6.93,40.06,263.91,45.67H0v40.66H268.96L5.05,624.48l6.93,40.06,304.1-52.63L23.81,711.01l13.05,38.51,292.28-99.09L55.73,793.58l18.86,36.02,273.41-143.16-247.94,183.77,24.21,32.66,247.94-183.77-216.49,219.96,28.98,28.52,216.49-219.96-179.82,250.83,33.04,23.69,179.81-250.83-138.8,275.65,36.31,18.29,138.8-275.65-94.44,293.82,38.71,12.44,94.44-293.82-47.8,304.9,40.17,6.3,47.79-304.9v308.62h40.66v-308.62l47.79,304.9,40.17-6.3-47.8-304.9,94.44,293.82,38.71-12.44-94.44-293.82,138.8,275.65,36.31-18.29-138.8-275.65,179.81,250.83,33.04-23.69-179.82-250.83,216.49,219.96,28.98-28.52-216.49-219.96,247.94,183.77,24.21-32.66-247.94-183.77,273.41,143.16,18.86-36.02-273.41-143.16,292.28,99.09,13.05-38.51-292.28-99.09,304.1,52.63,6.93-40.06-263.91-45.67h268.96v-40.66Zm-793.5,20.33c0-126.36,102.44-228.79,228.79-228.79v134.32c-49,1.24-88.34,41.35-88.34,90.65s39.34,89.41,88.34,90.65v141.96c-126.36,0-228.79-102.43-228.79-228.79Z"/>
</svg>